<svg id="Group_29" data-name="Group 29" xmlns="http://www.w3.org/2000/svg" width="20.729" height="17.275" viewBox="0 0 20.729 17.275">
  <path id="twitter" d="M20.729,5.021a5.571,5.571,0,0,1-.774,1.109,5.714,5.714,0,0,1-1.4,1.179q.023.185.035.347a12.578,12.578,0,0,1-.89,4.819,12.688,12.688,0,0,1-5.049,6.274,13.276,13.276,0,0,1-7.9,1.444A9.075,9.075,0,0,1,0,18.355a8.849,8.849,0,0,0,6.332-1.826,4.362,4.362,0,0,1-4.021-2.981,2.7,2.7,0,0,0,.9.046,8.384,8.384,0,0,0,1.017-.139,4.767,4.767,0,0,1-2.889-2.242A4.832,4.832,0,0,1,.855,9.088a4.06,4.06,0,0,0,1.918.578A4.956,4.956,0,0,1,.89,6.6a5.67,5.67,0,0,1,.52-2.762,14.524,14.524,0,0,0,4.934,3.7,10.221,10.221,0,0,0,3.871.809,5.173,5.173,0,0,1,.52-3.282A4.471,4.471,0,0,1,13.4,3.125,3.939,3.939,0,0,1,17.355,4.35a7.034,7.034,0,0,0,2.75-1.017,4.172,4.172,0,0,1-1.9,2.45,12.016,12.016,0,0,0,2.519-.762Z" transform="translate(0 -2.999)" fill="#e4386e"/>
</svg>
