<svg xmlns="http://www.w3.org/2000/svg" width="174" height="152.237" viewBox="0 0 174 152.237">
  <g id="Group_1224" data-name="Group 1224" transform="translate(-854 -1299.897)">
    <g id="_層_1-2" transform="translate(855 1396.134)">
      <text id="grabook" transform="translate(86 42)" fill="#fff" font-size="43" font-family="CoHeadline-Regular, Co Headline"><tspan x="-86.516" y="0">g</tspan><tspan y="0" letter-spacing="-0.01em">r</tspan><tspan y="0">abook</tspan></text>
    </g>
    <g id="_層_1-2-2" data-name="_層_1-2" transform="translate(910.444 1299.897)">
      <g id="Group_1222" data-name="Group 1222" transform="translate(0 0)">
        <path id="Path_1556" data-name="Path 1556" d="M56.992,7,15.62,17.651l2.173,2.031a2.9,2.9,0,0,0,2.727.7L61.892,9.732,59.72,7.7A2.924,2.924,0,0,0,56.992,7Z" transform="translate(-0.92 -0.411)" fill="#fff"/>
        <path id="Path_1557" data-name="Path 1557" d="M15.978,96.212c.141.038.263.075.367.094V26.061l-11.38-10.6L54,2.821,51.83.79A2.907,2.907,0,0,0,49.836,0,2.8,2.8,0,0,0,49.1.094L1.448,12.349A1.933,1.933,0,0,0,.056,13.741a2.033,2.033,0,0,0-.047.6v.066l-.019.113V80.675A1.95,1.95,0,0,0,.6,82.086L15.489,95.949a1.959,1.959,0,0,0,.48.254Z" transform="translate(0.01 0)" fill="#fff"/>
        <circle id="Ellipse_56" data-name="Ellipse 56" cx="2.586" cy="2.586" r="2.586" transform="translate(42.52 68.167)" fill="#fff"/>
        <path id="Path_1558" data-name="Path 1558" d="M65.41,14.2l-2.069.536h0L23.379,24.983V63.938A2.882,2.882,0,0,0,24.5,66.233a2.918,2.918,0,0,0,2.5.536l22.177-5.427a3.871,3.871,0,0,0,2.8-3.715v-7.2L32.869,55.37v-19.7a1.627,1.627,0,0,1,1.157-1.608l24.152-6.235a1.46,1.46,0,0,1,1.26.273,1.781,1.781,0,0,1,.668,1.4V73.7a1.624,1.624,0,0,1-1.166,1.608L34.788,81.544a1.46,1.46,0,0,1-1.26-.273,1.781,1.781,0,0,1-.668-1.4V77.255a1.916,1.916,0,0,0-.743-1.514,1.883,1.883,0,0,0-1.646-.339l-7.1,1.843V92.087a2.926,2.926,0,0,0,3.649,2.831L66.567,84.77a2.917,2.917,0,0,0,2.2-2.831V16.819A2.7,2.7,0,0,0,65.41,14.2Z" transform="translate(-1.381 -0.84)" fill="#fff"/>
      </g>
    </g>
  </g>
</svg>
