<svg xmlns="http://www.w3.org/2000/svg" xmlns:xlink="http://www.w3.org/1999/xlink" width="274" height="75" viewBox="0 0 274 75">
  <defs>
    <clipPath id="clip-path">
      <rect y="20" width="274" height="75" fill="none"/>
    </clipPath>
    <linearGradient id="linear-gradient" x1="0.238" y1="-0.724" x2="1.262" y2="4.067" gradientUnits="objectBoundingBox">
      <stop offset="0" stop-color="#26aae5"/>
      <stop offset="0.52" stop-color="#8627d8"/>
      <stop offset="1" stop-color="#f8166d"/>
    </linearGradient>
    <linearGradient id="linear-gradient-2" x1="0.147" y1="0.166" x2="1.024" y2="0.84" xlink:href="#linear-gradient"/>
    <linearGradient id="linear-gradient-3" x1="-7.609" y1="-10.623" x2="1.542" y2="1.926" xlink:href="#linear-gradient"/>
    <linearGradient id="linear-gradient-4" x1="-0.243" y1="-0.072" x2="0.801" y2="0.731" xlink:href="#linear-gradient"/>
  </defs>
  <g id="Scroll_Group_1" data-name="Scroll Group 1" transform="translate(0 -20)" clip-path="url(#clip-path)" style="isolation: isolate">
    <g id="_層_1-2" transform="translate(-125.577 -11.144)">
      <g id="Group_1326" data-name="Group 1326" transform="translate(113.143 28.378)">
        <text id="grabook" transform="translate(80.579 54.766)" fill="#e62468" font-size="51" font-family="Co Headline"><tspan x="0" y="0">grab</tspan><tspan y="0" fill="#703ee2">ook</tspan></text>
        <g id="Group_1325" data-name="Group 1325" transform="translate(12.435 3.767)">
          <path id="Path_2845" data-name="Path 2845" d="M80.539,5.494,48.8,13.658l1.664,1.563a2.228,2.228,0,0,0,2.087.533L84.3,7.59,82.635,6.027a2.228,2.228,0,0,0-2.087-.533Z" transform="translate(-37.534 -0.428)" fill="url(#linear-gradient)"/>
          <path id="Path_2846" data-name="Path 2846" d="M48.8,73.8a2.776,2.776,0,0,0,.276.064V19.987L40.347,11.86,77.97,2.16,76.306.6A2.228,2.228,0,0,0,74.779-.01a2.348,2.348,0,0,0-.561.074L37.653,9.478a1.491,1.491,0,0,0-1.067,1.067,1.459,1.459,0,0,0-.037.46V61.886a1.446,1.446,0,0,0,.46,1.085L48.429,73.608a1.406,1.406,0,0,0,.368.193Z" transform="translate(-36.546 0.01)" fill="url(#linear-gradient-2)"/>
          <circle id="Ellipse_91" data-name="Ellipse 91" cx="1.986" cy="1.986" r="1.986" transform="translate(32.606 52.297)" fill="url(#linear-gradient-3)"/>
          <path id="Path_2847" data-name="Path 2847" d="M87.134,11.144l-1.591.414h0L54.89,19.419V49.3a2.249,2.249,0,0,0,.855,1.765,2.215,2.215,0,0,0,1.922.414l17.019-4.165a2.976,2.976,0,0,0,2.151-2.85V38.939l-14.656,3.8V27.611a1.248,1.248,0,0,1,.892-1.232L81.6,21.6a1.114,1.114,0,0,1,.965.211,1.365,1.365,0,0,1,.515,1.076V56.794a1.248,1.248,0,0,1-.892,1.232L63.661,62.807A1.114,1.114,0,0,1,62.7,62.6a1.365,1.365,0,0,1-.515-1.076v-2A1.466,1.466,0,0,0,60.342,58.1L54.9,59.515V70.9a2.243,2.243,0,0,0,2.8,2.179l30.341-7.788a2.242,2.242,0,0,0,1.683-2.17V13.149a2.073,2.073,0,0,0-2.574-2Z" transform="translate(-38.024 -0.884)" fill="url(#linear-gradient-4)"/>
        </g>
      </g>
    </g>
  </g>
</svg>
