<svg id="Group_28" data-name="Group 28" xmlns="http://www.w3.org/2000/svg" width="22.847" height="22.884" viewBox="0 0 22.847 22.884">
  <g id="bxl-instagram">
    <path id="Path_1" data-name="Path 1" d="M16.929,11.066A5.867,5.867,0,1,0,22.8,16.933,5.867,5.867,0,0,0,16.929,11.066Zm0,9.678a3.811,3.811,0,1,1,3.811-3.811,3.811,3.811,0,0,1-3.811,3.811Z" transform="translate(-5.514 -5.519)" fill="#e4386e"/>
    <path id="Path_2" data-name="Path 2" d="M26.327,10.561A1.368,1.368,0,1,1,24.96,9.193,1.368,1.368,0,0,1,26.327,10.561Z" transform="translate(-7.445 -5.23)" fill="#e4386e"/>
    <path id="Path_3" data-name="Path 3" d="M26.746,8.448a5.843,5.843,0,0,0-3.341-3.339,8.381,8.381,0,0,0-2.774-.533c-1.221-.053-1.609-.069-4.707-.069s-3.5,0-4.707.069a8.316,8.316,0,0,0-2.771.533A5.836,5.836,0,0,0,5.105,8.449a8.355,8.355,0,0,0-.531,2.774C4.519,12.443,4.5,12.83,4.5,15.93s0,3.493.071,4.707a8.363,8.363,0,0,0,.531,2.774,5.849,5.849,0,0,0,3.342,3.339,8.354,8.354,0,0,0,2.772.571c1.221.053,1.609.07,4.707.07s3.5,0,4.707-.07a8.392,8.392,0,0,0,2.774-.531,5.853,5.853,0,0,0,3.341-3.341,8.333,8.333,0,0,0,.531-2.774c.055-1.221.071-1.607.071-4.707s0-3.493-.071-4.707a8.351,8.351,0,0,0-.534-2.813ZM25.2,20.542a6.4,6.4,0,0,1-.4,2.142,3.79,3.79,0,0,1-2.172,2.171,6.325,6.325,0,0,1-2.119.4c-1.205.056-1.545.07-4.636.07s-3.409,0-4.637-.07a6.293,6.293,0,0,1-2.117-.4,3.788,3.788,0,0,1-2.181-2.171,6.446,6.446,0,0,1-.4-2.117c-.055-1.205-.068-1.545-.068-4.636s0-3.408.068-4.637a6.392,6.392,0,0,1,.4-2.14A3.791,3.791,0,0,1,9.125,6.981a6.356,6.356,0,0,1,2.117-.4c1.206-.055,1.545-.07,4.637-.07s3.409,0,4.636.07a6.293,6.293,0,0,1,2.119.4,3.8,3.8,0,0,1,2.172,2.172,6.446,6.446,0,0,1,.4,2.117c.055,1.206.069,1.545.069,4.637s0,3.423-.055,4.636H25.2Z" transform="translate(-4.503 -4.508)" fill="#e4386e"/>
  </g>
</svg>
