<svg xmlns="http://www.w3.org/2000/svg" width="27.048" height="20.288" viewBox="0 0 27.048 20.288">
  <path id="logo-youtube" d="M26.874,8.98a4.107,4.107,0,0,0-3.91-4.29C20.037,4.553,17.052,4.5,14,4.5H13.05c-3.043,0-6.034.053-8.961.19a4.116,4.116,0,0,0-3.9,4.3C.052,10.871,0,12.752,0,14.633s.054,3.764.18,5.648a4.12,4.12,0,0,0,3.9,4.306c3.075.143,6.229.206,9.436.2q4.819.016,9.436-.2a4.121,4.121,0,0,0,3.91-4.306c.127-1.886.185-3.767.18-5.653q.018-2.822-.172-5.648ZM10.937,19.816V9.435L18.6,14.623Z" transform="translate(0 -4.5)" fill="#e4386e"/>
</svg>
