<svg id="Group_1324" data-name="Group 1324" xmlns="http://www.w3.org/2000/svg" xmlns:xlink="http://www.w3.org/1999/xlink" width="223.37" height="209.626" viewBox="0 0 223.37 209.626">
  <defs>
    <clipPath id="clip-path">
      <rect id="Rectangle_1157" data-name="Rectangle 1157" width="223.369" height="209.626" fill="#fff"/>
    </clipPath>
    <clipPath id="clip-path-2">
      <path id="Path_2357" data-name="Path 2357" d="M109.318,5.563,47.612,21.44l3.243,3.032a4.329,4.329,0,0,0,4.063,1.035l61.7-15.876L113.38,6.6a4.335,4.335,0,0,0-2.966-1.174,4.417,4.417,0,0,0-1.1.139" transform="translate(-47.612 -5.424)" fill="#fff"/>
    </clipPath>
    <clipPath id="clip-path-4">
      <path id="Path_2606" data-name="Path 2606" d="M109.685,0a4.3,4.3,0,0,0-1.094.139L37.519,18.425A2.875,2.875,0,0,0,35.447,20.5a2.806,2.806,0,0,0-.066.9l.007.093-.032.172,0,98.664a2.89,2.89,0,0,0,.915,2.106l22.2,20.683a2.967,2.967,0,0,0,.713.384c.211.063.386.1.542.134V38.867l-16.97-15.8L115.9,4.206l-3.245-3.032A4.349,4.349,0,0,0,109.685,0Z" transform="translate(-35.356)" fill="#fff"/>
    </clipPath>
    <clipPath id="clip-path-6">
      <path id="Path_2630" data-name="Path 2630" d="M70.826,60.73a3.856,3.856,0,1,0,3.858-3.856,3.857,3.857,0,0,0-3.858,3.856" transform="translate(-70.826 -56.874)" fill="#fff"/>
    </clipPath>
    <clipPath id="clip-path-8">
      <path id="Path_2844" data-name="Path 2844" d="M116.4,11.207l-3.091.8L113.292,12,53.7,27.283v58.11a4.359,4.359,0,0,0,5.4,4.233l33.081-8.091a5.772,5.772,0,0,0,4.181-5.542V65.246l-28.5,7.379v-29.4a2.423,2.423,0,0,1,1.732-2.4l36.021-9.3a2.174,2.174,0,0,1,1.886.408,2.649,2.649,0,0,1,.994,2.09V99.959a2.421,2.421,0,0,1-1.732,2.4l-36.02,9.3a2.17,2.17,0,0,1-1.884-.406,2.643,2.643,0,0,1-1-2.092v-3.9a2.849,2.849,0,0,0-3.568-2.76L53.7,105.238v22.137a4.359,4.359,0,0,0,5.442,4.221l58.993-15.134a4.356,4.356,0,0,0,3.275-4.221V15.106a4.008,4.008,0,0,0-5.009-3.9" transform="translate(-53.699 -11.08)" fill="#fff"/>
    </clipPath>
  </defs>
  <g id="Group_1309" data-name="Group 1309">
    <g id="Group_1308" data-name="Group 1308" clip-path="url(#clip-path)">
      <path id="Path_2228" data-name="Path 2228" d="M14.208,135.157a32.089,32.089,0,0,1-6.125-.615,22.365,22.365,0,0,1-5.173-1.566l1.734-4.755a19.312,19.312,0,0,0,4.138,1.258,24.381,24.381,0,0,0,4.923.531q4.811,0,7.469-2.546T23.831,120v-.67a11.5,11.5,0,0,1-3.944,3.048,12.674,12.674,0,0,1-5.565,1.146,14.848,14.848,0,0,1-7.217-1.763,13.453,13.453,0,0,1-5.175-4.95A14.08,14.08,0,0,1,0,109.368a14.833,14.833,0,0,1,1.931-7.58A14.214,14.214,0,0,1,7.3,96.5a15.949,15.949,0,0,1,8.027-1.957,15.4,15.4,0,0,1,7.86,1.929,13.151,13.151,0,0,1,5.173,5.54,18.884,18.884,0,0,1,1.847,8.7v7.832q0,8-4.138,12.308t-11.861,4.306m1.064-34.85a8.353,8.353,0,0,0-6.294,2.462,10.05,10.05,0,0,0,0,12.978,8.353,8.353,0,0,0,6.294,2.462,8.353,8.353,0,0,0,6.294-2.462,10.044,10.044,0,0,0,0-12.978,8.353,8.353,0,0,0-6.294-2.462" transform="translate(0 74.469)" fill="#fff"/>
      <path id="Path_2229" data-name="Path 2229" d="M20.184,105.341A10.157,10.157,0,0,1,23.346,97.4q3.156-2.85,8.754-2.853a12.543,12.543,0,0,1,5.872,1.119,3.281,3.281,0,0,1,2.07,2.853,3.776,3.776,0,0,1-.476,1.791,3.076,3.076,0,0,1-.922,1.174,12.22,12.22,0,0,0-5.538-1.232q-6.546,0-6.546,6.938v16.221H20.184Z" transform="translate(15.898 74.468)" fill="#fff"/>
      <path id="Path_2230" data-name="Path 2230" d="M58.7,123.3q-2.909.389-6.293.644t-6.125.25q-6.937,0-10.6-2.181t-3.665-7.1a7.859,7.859,0,0,1,3.161-6.713q3.159-2.349,10.265-2.349,1.62,0,3.636.111t3.245.279a5.8,5.8,0,0,0-2.1-4.977q-2.1-1.566-6.239-1.568a19.059,19.059,0,0,0-4.782.56,7.693,7.693,0,0,0-3.105,1.4,3.76,3.76,0,0,1-1.062-1.258,3.473,3.473,0,0,1-.447-1.705q0-1.9,2.349-3.021a16.735,16.735,0,0,1,6.936-1.119q7.326,0,11.076,2.994t3.747,8.922Zm-18.4-4.784a13.09,13.09,0,0,0,5.987,1.035q1.679,0,3.411-.139a19.033,19.033,0,0,0,2.687-.365V110.88a22.113,22.113,0,0,0-3.218-.42q-1.984-.139-3.5-.139-4.084,0-5.678,1.2a4.175,4.175,0,0,0-1.593,3.554,3.606,3.606,0,0,0,1.9,3.439" transform="translate(25.215 74.468)" fill="#fff"/>
      <path id="Path_2231" data-name="Path 2231" d="M50.256,90.594a2.653,2.653,0,0,1,.951-2.21,3.83,3.83,0,0,1,2.462-.754,8.324,8.324,0,0,1,1.621.166,4.645,4.645,0,0,1,1.343.449V104.3a10.81,10.81,0,0,1,4-3.161,12.808,12.808,0,0,1,5.511-1.148,13.949,13.949,0,0,1,7.272,1.931,14.2,14.2,0,0,1,5.147,5.258,15.13,15.13,0,0,1,1.9,7.637A14.911,14.911,0,0,1,78.5,122.48a13.876,13.876,0,0,1-5.426,5.257,16.5,16.5,0,0,1-8.055,1.9,15.245,15.245,0,0,1-7.83-1.929,13,13,0,0,1-5.12-5.567,19.192,19.192,0,0,1-1.818-8.67Zm21.2,17.566a8.207,8.207,0,0,0-6.21-2.517,8.292,8.292,0,0,0-6.237,2.517,10.171,10.171,0,0,0,0,13.2,8.292,8.292,0,0,0,6.237,2.517,8.207,8.207,0,0,0,6.21-2.517,10.257,10.257,0,0,0,0-13.2" transform="translate(39.584 69.022)" fill="#fff"/>
      <path id="Path_2232" data-name="Path 2232" d="M71.573,116.921a15,15,0,0,1,0-15.1A14.921,14.921,0,0,1,77.084,96.5a15.653,15.653,0,0,1,7.832-1.957,15.814,15.814,0,0,1,7.86,1.957,14.652,14.652,0,0,1,5.51,5.315,15.161,15.161,0,0,1,0,15.1,14.647,14.647,0,0,1-5.51,5.313,15.815,15.815,0,0,1-7.86,1.959,15.654,15.654,0,0,1-7.832-1.959,14.916,14.916,0,0,1-5.511-5.313m20.951-2.769a10.78,10.78,0,0,0,0-9.566,8.226,8.226,0,0,0-3.105-3.273,9.22,9.22,0,0,0-9.006,0,8.2,8.2,0,0,0-3.105,3.273,10.78,10.78,0,0,0,0,9.566,8.214,8.214,0,0,0,3.105,3.273,9.22,9.22,0,0,0,9.006,0,8.238,8.238,0,0,0,3.105-3.273" transform="translate(54.768 74.469)" fill="#fff"/>
      <path id="Path_2233" data-name="Path 2233" d="M91.161,116.921a15,15,0,0,1,0-15.1A14.921,14.921,0,0,1,96.672,96.5a15.653,15.653,0,0,1,7.832-1.957,15.814,15.814,0,0,1,7.86,1.957,14.652,14.652,0,0,1,5.51,5.315,15.161,15.161,0,0,1,0,15.1,14.647,14.647,0,0,1-5.51,5.313,15.815,15.815,0,0,1-7.86,1.959,15.654,15.654,0,0,1-7.832-1.959,14.916,14.916,0,0,1-5.511-5.313m20.951-2.769a10.781,10.781,0,0,0,0-9.566,8.227,8.227,0,0,0-3.105-3.273,9.22,9.22,0,0,0-9.006,0,8.2,8.2,0,0,0-3.105,3.273,10.78,10.78,0,0,0,0,9.566A8.214,8.214,0,0,0,100,117.425a9.22,9.22,0,0,0,9.006,0,8.239,8.239,0,0,0,3.105-3.273" transform="translate(70.197 74.469)" fill="#fff"/>
      <path id="Path_2234" data-name="Path 2234" d="M109.336,90.593a2.653,2.653,0,0,1,.951-2.21,3.835,3.835,0,0,1,2.46-.754,8.224,8.224,0,0,1,1.623.168,4.687,4.687,0,0,1,1.343.447v22.878l11.636-8.5a8.517,8.517,0,0,1,2.685-1.482,7.789,7.789,0,0,1,2.183-.365,4.437,4.437,0,0,1,2.517.644,4.074,4.074,0,0,1,1.4,1.539q-.786.727-2.462,2.013t-3.747,2.826q-2.073,1.539-4.167,3.021t-3.777,2.6a77.472,77.472,0,0,1,8.334,7.3,66.025,66.025,0,0,1,6.938,8.139h-7.944a51.251,51.251,0,0,0-3.665-4.083q-2.153-2.183-4.7-4.39t-5.231-4.169v12.642h-6.377Z" transform="translate(86.119 69.022)" fill="#fff"/>
      <path id="Path_2235" data-name="Path 2235" d="M109.317,5.563,47.611,21.441l3.245,3.03a4.333,4.333,0,0,0,4.063,1.037l61.7-15.878L113.379,6.6a4.338,4.338,0,0,0-4.062-1.037" transform="translate(37.501 4.273)" fill="#fff"/>
    </g>
  </g>
  <g id="Group_1311" data-name="Group 1311" transform="translate(85.114 9.696)">
    <g id="Group_1310" data-name="Group 1310" clip-path="url(#clip-path-2)">
      <path id="Path_2236" data-name="Path 2236" d="M48.335,5.293l-.724.527V5.293Z" transform="translate(-47.612 -5.527)" fill="#fff"/>
      <path id="Path_2237" data-name="Path 2237" d="M49.147,5.293,47.611,6.412V5.821l.724-.527Z" transform="translate(-47.613 -5.527)" fill="#fff"/>
      <path id="Path_2238" data-name="Path 2238" d="M49.958,5.293,47.612,7V6.412l1.534-1.119Z" transform="translate(-47.612 -5.527)" fill="#fff"/>
      <path id="Path_2239" data-name="Path 2239" d="M50.769,5.293,47.612,7.6V7l2.345-1.711Z" transform="translate(-47.612 -5.527)" fill="#fff"/>
      <path id="Path_2240" data-name="Path 2240" d="M51.58,5.293,47.612,8.188V7.6l3.157-2.3Z" transform="translate(-47.612 -5.527)" fill="#fff"/>
      <path id="Path_2241" data-name="Path 2241" d="M52.392,5.293l-4.78,3.486V8.188L51.58,5.293Z" transform="translate(-47.612 -5.527)" fill="#fff"/>
      <path id="Path_2242" data-name="Path 2242" d="M53.2,5.293l-5.59,4.076v-.59l4.778-3.486Z" transform="translate(-47.612 -5.527)" fill="#fff"/>
      <path id="Path_2243" data-name="Path 2243" d="M54.014,5.293l-6.4,4.668V9.369L53.2,5.293Z" transform="translate(-47.612 -5.527)" fill="#fff"/>
      <path id="Path_2244" data-name="Path 2244" d="M54.825,5.293l-7.213,5.259V9.961l6.4-4.668Z" transform="translate(-47.612 -5.527)" fill="#fff"/>
      <path id="Path_2245" data-name="Path 2245" d="M55.636,5.293l-8.025,5.851v-.592l7.213-5.259Z" transform="translate(-47.612 -5.527)" fill="#fff"/>
      <path id="Path_2246" data-name="Path 2246" d="M56.448,5.293l-8.836,6.443v-.592l8.025-5.851Z" transform="translate(-47.613 -5.527)" fill="#fff"/>
      <path id="Path_2247" data-name="Path 2247" d="M57.258,5.293l-9.646,7.034v-.592l8.835-6.443Z" transform="translate(-47.612 -5.527)" fill="#fff"/>
      <path id="Path_2248" data-name="Path 2248" d="M58.07,5.293,47.612,12.92v-.592l9.646-7.034Z" transform="translate(-47.612 -5.527)" fill="#fff"/>
      <path id="Path_2249" data-name="Path 2249" d="M58.881,5.293,47.612,13.511V12.92L58.069,5.293Z" transform="translate(-47.612 -5.527)" fill="#fff"/>
      <path id="Path_2250" data-name="Path 2250" d="M59.692,5.293,47.611,14.1v-.59L58.881,5.293Z" transform="translate(-47.613 -5.527)" fill="#fff"/>
      <path id="Path_2251" data-name="Path 2251" d="M60.5,5.293l-12.891,9.4V14.1L59.691,5.293Z" transform="translate(-47.612 -5.527)" fill="#fff"/>
      <path id="Path_2252" data-name="Path 2252" d="M61.314,5.293l-13.7,9.991v-.592L60.5,5.293Z" transform="translate(-47.612 -5.527)" fill="#fff"/>
      <path id="Path_2253" data-name="Path 2253" d="M62.126,5.293,47.612,15.876v-.592l13.7-9.991Z" transform="translate(-47.612 -5.527)" fill="#fff"/>
      <path id="Path_2254" data-name="Path 2254" d="M62.937,5.293,47.611,16.468v-.592L62.125,5.293Z" transform="translate(-47.612 -5.527)" fill="#fff"/>
      <path id="Path_2255" data-name="Path 2255" d="M63.747,5.293,47.612,17.06v-.592L62.936,5.293Z" transform="translate(-47.612 -5.527)" fill="#fff"/>
      <path id="Path_2256" data-name="Path 2256" d="M64.559,5.293,47.612,17.651V17.06L63.747,5.293Z" transform="translate(-47.612 -5.527)" fill="#fff"/>
      <path id="Path_2257" data-name="Path 2257" d="M65.37,5.293,47.612,18.243v-.592L64.559,5.293Z" transform="translate(-47.612 -5.527)" fill="#fff"/>
      <path id="Path_2258" data-name="Path 2258" d="M66.182,5.293l-18.57,13.54v-.59L65.37,5.293Z" transform="translate(-47.612 -5.527)" fill="#fff"/>
      <path id="Path_2259" data-name="Path 2259" d="M66.993,5.293,47.611,19.425v-.592l18.57-13.54Z" transform="translate(-47.613 -5.527)" fill="#fff"/>
      <path id="Path_2260" data-name="Path 2260" d="M67.8,5.293,47.612,20.017v-.592L66.992,5.293Z" transform="translate(-47.612 -5.527)" fill="#fff"/>
      <path id="Path_2261" data-name="Path 2261" d="M68.615,5.293l-21,15.315v-.592L67.8,5.293Z" transform="translate(-47.612 -5.527)" fill="#fff"/>
      <path id="Path_2262" data-name="Path 2262" d="M69.426,5.293,47.612,21.2v-.592l21-15.315Z" transform="translate(-47.612 -5.527)" fill="#fff"/>
      <path id="Path_2263" data-name="Path 2263" d="M70.238,5.293l-22.626,16.5V21.2L69.426,5.293Z" transform="translate(-47.613 -5.527)" fill="#fff"/>
      <path id="Path_2264" data-name="Path 2264" d="M71.048,5.293,47.612,22.383v-.592l22.625-16.5Z" transform="translate(-47.612 -5.527)" fill="#fff"/>
      <path id="Path_2265" data-name="Path 2265" d="M71.86,5.293,47.612,22.975v-.592L71.048,5.293Z" transform="translate(-47.612 -5.527)" fill="#fff"/>
      <path id="Path_2266" data-name="Path 2266" d="M72.671,5.293,47.612,23.565v-.59L71.859,5.293Z" transform="translate(-47.612 -5.527)" fill="#fff"/>
      <path id="Path_2267" data-name="Path 2267" d="M73.482,5.293,47.611,24.157v-.592L72.671,5.293Z" transform="translate(-47.612 -5.527)" fill="#fff"/>
      <path id="Path_2268" data-name="Path 2268" d="M74.293,5.293,47.612,24.748v-.592L73.481,5.293Z" transform="translate(-47.612 -5.527)" fill="#fff"/>
      <path id="Path_2269" data-name="Path 2269" d="M75.1,5.293,47.612,25.34v-.592L74.293,5.293Z" transform="translate(-47.612 -5.527)" fill="#fff"/>
      <path id="Path_2270" data-name="Path 2270" d="M75.916,5.293l-28.3,20.638V25.34L75.1,5.293Z" transform="translate(-47.612 -5.527)" fill="#fff"/>
      <path id="Path_2271" data-name="Path 2271" d="M76.727,5.293,48.351,25.984h-.74v-.052l28.3-20.638Z" transform="translate(-47.612 -5.527)" fill="#fff"/>
      <path id="Path_2272" data-name="Path 2272" d="M77.212,5.293,48.837,25.984h-.812L76.4,5.293Z" transform="translate(-47.287 -5.527)" fill="#fff"/>
      <path id="Path_2273" data-name="Path 2273" d="M77.666,5.293,49.291,25.984h-.812L76.854,5.293Z" transform="translate(-46.929 -5.527)" fill="#fff"/>
      <path id="Path_2274" data-name="Path 2274" d="M78.12,5.293,49.744,25.984h-.812L77.308,5.293Z" transform="translate(-46.572 -5.527)" fill="#fff"/>
      <path id="Path_2275" data-name="Path 2275" d="M78.574,5.293,50.2,25.984h-.812L77.762,5.293Z" transform="translate(-46.214 -5.527)" fill="#fff"/>
      <path id="Path_2276" data-name="Path 2276" d="M79.027,5.293,50.652,25.984H49.84L78.216,5.293Z" transform="translate(-45.857 -5.527)" fill="#fff"/>
      <path id="Path_2277" data-name="Path 2277" d="M79.481,5.293,51.106,25.984h-.812L78.669,5.293Z" transform="translate(-45.5 -5.527)" fill="#fff"/>
      <path id="Path_2278" data-name="Path 2278" d="M79.935,5.293,51.559,25.984h-.812L79.123,5.293Z" transform="translate(-45.142 -5.527)" fill="#fff"/>
      <path id="Path_2279" data-name="Path 2279" d="M80.389,5.293,52.013,25.984H51.2L79.577,5.293Z" transform="translate(-44.785 -5.527)" fill="#fff"/>
      <path id="Path_2280" data-name="Path 2280" d="M80.842,5.293,52.467,25.984h-.812L80.031,5.293Z" transform="translate(-44.427 -5.527)" fill="#fff"/>
      <path id="Path_2281" data-name="Path 2281" d="M81.3,5.293,52.921,25.984h-.812L80.485,5.293Z" transform="translate(-44.07 -5.527)" fill="#fff"/>
      <path id="Path_2282" data-name="Path 2282" d="M81.75,5.293,53.374,25.984h-.812L80.938,5.293Z" transform="translate(-43.712 -5.527)" fill="#fff"/>
      <path id="Path_2283" data-name="Path 2283" d="M82.2,5.293,53.828,25.984h-.812L81.392,5.293Z" transform="translate(-43.355 -5.527)" fill="#fff"/>
      <path id="Path_2284" data-name="Path 2284" d="M82.657,5.293,54.282,25.984H53.47L81.846,5.293Z" transform="translate(-42.998 -5.527)" fill="#fff"/>
      <path id="Path_2285" data-name="Path 2285" d="M83.111,5.293,54.736,25.984h-.812L82.3,5.293Z" transform="translate(-42.64 -5.527)" fill="#fff"/>
      <path id="Path_2286" data-name="Path 2286" d="M83.565,5.293,55.19,25.984h-.812L82.753,5.293Z" transform="translate(-42.283 -5.527)" fill="#fff"/>
      <path id="Path_2287" data-name="Path 2287" d="M84.019,5.293,55.643,25.984h-.812L83.207,5.293Z" transform="translate(-41.925 -5.527)" fill="#fff"/>
      <path id="Path_2288" data-name="Path 2288" d="M84.473,5.293,56.1,25.984h-.812L83.661,5.293Z" transform="translate(-41.568 -5.527)" fill="#fff"/>
      <path id="Path_2289" data-name="Path 2289" d="M84.926,5.293,56.551,25.984h-.812L84.115,5.293Z" transform="translate(-41.21 -5.527)" fill="#fff"/>
      <path id="Path_2290" data-name="Path 2290" d="M85.38,5.293,57,25.984h-.812L84.568,5.293Z" transform="translate(-40.853 -5.527)" fill="#fff"/>
      <path id="Path_2291" data-name="Path 2291" d="M85.834,5.293,57.458,25.984h-.812L85.022,5.293Z" transform="translate(-40.496 -5.527)" fill="#fff"/>
      <path id="Path_2292" data-name="Path 2292" d="M86.288,5.293,57.912,25.984H57.1L85.476,5.293Z" transform="translate(-40.138 -5.527)" fill="#fff"/>
      <path id="Path_2293" data-name="Path 2293" d="M86.741,5.293,58.366,25.984h-.812L85.93,5.293Z" transform="translate(-39.781 -5.527)" fill="#fff"/>
      <path id="Path_2294" data-name="Path 2294" d="M87.2,5.293,58.82,25.984h-.812L86.384,5.293Z" transform="translate(-39.423 -5.527)" fill="#fff"/>
      <path id="Path_2295" data-name="Path 2295" d="M87.649,5.293,59.274,25.984h-.812L86.837,5.293Z" transform="translate(-39.066 -5.527)" fill="#fff"/>
      <path id="Path_2296" data-name="Path 2296" d="M88.1,5.293,59.727,25.984h-.812L87.291,5.293Z" transform="translate(-38.709 -5.527)" fill="#fff"/>
      <path id="Path_2297" data-name="Path 2297" d="M88.556,5.293,60.181,25.984h-.812L87.745,5.293Z" transform="translate(-38.351 -5.527)" fill="#fff"/>
      <path id="Path_2298" data-name="Path 2298" d="M89.01,5.293,60.635,25.984h-.812L88.2,5.293Z" transform="translate(-37.994 -5.527)" fill="#fff"/>
      <path id="Path_2299" data-name="Path 2299" d="M89.464,5.293,61.089,25.984h-.812L88.652,5.293Z" transform="translate(-37.636 -5.527)" fill="#fff"/>
      <path id="Path_2300" data-name="Path 2300" d="M89.918,5.293,61.542,25.984h-.812L89.106,5.293Z" transform="translate(-37.279 -5.527)" fill="#fff"/>
      <path id="Path_2301" data-name="Path 2301" d="M90.372,5.293,62,25.984h-.812L89.56,5.293Z" transform="translate(-36.922 -5.527)" fill="#fff"/>
      <path id="Path_2302" data-name="Path 2302" d="M90.825,5.293,62.45,25.984h-.812L90.014,5.293Z" transform="translate(-36.564 -5.527)" fill="#fff"/>
      <path id="Path_2303" data-name="Path 2303" d="M91.279,5.293,62.9,25.984h-.812L90.467,5.293Z" transform="translate(-36.207 -5.527)" fill="#fff"/>
      <path id="Path_2304" data-name="Path 2304" d="M91.733,5.293,63.357,25.984h-.812L90.921,5.293Z" transform="translate(-35.849 -5.527)" fill="#fff"/>
      <path id="Path_2305" data-name="Path 2305" d="M92.187,5.293,63.811,25.984H63L91.375,5.293Z" transform="translate(-35.492 -5.527)" fill="#fff"/>
      <path id="Path_2306" data-name="Path 2306" d="M92.64,5.293,64.265,25.984h-.812L91.829,5.293Z" transform="translate(-35.134 -5.527)" fill="#fff"/>
      <path id="Path_2307" data-name="Path 2307" d="M93.094,5.293,64.719,25.984h-.812L92.283,5.293Z" transform="translate(-34.777 -5.527)" fill="#fff"/>
      <path id="Path_2308" data-name="Path 2308" d="M93.548,5.293,65.172,25.984h-.812L92.736,5.293Z" transform="translate(-34.42 -5.527)" fill="#fff"/>
      <path id="Path_2309" data-name="Path 2309" d="M94,5.293,65.626,25.984h-.812L93.19,5.293Z" transform="translate(-34.062 -5.527)" fill="#fff"/>
      <path id="Path_2310" data-name="Path 2310" d="M94.455,5.293,66.08,25.984h-.812L93.644,5.293Z" transform="translate(-33.705 -5.527)" fill="#fff"/>
      <path id="Path_2311" data-name="Path 2311" d="M94.909,5.293,66.534,25.984h-.812L94.1,5.293Z" transform="translate(-33.347 -5.527)" fill="#fff"/>
      <path id="Path_2312" data-name="Path 2312" d="M95.363,5.293,66.987,25.984h-.812L94.551,5.293Z" transform="translate(-32.99 -5.527)" fill="#fff"/>
      <path id="Path_2313" data-name="Path 2313" d="M95.817,5.293,67.441,25.984H66.63L95.005,5.293Z" transform="translate(-32.633 -5.527)" fill="#fff"/>
      <path id="Path_2314" data-name="Path 2314" d="M96.271,5.293,67.9,25.984h-.812L95.459,5.293Z" transform="translate(-32.275 -5.527)" fill="#fff"/>
      <path id="Path_2315" data-name="Path 2315" d="M96.724,5.293,68.349,25.984h-.812L95.913,5.293Z" transform="translate(-31.918 -5.527)" fill="#fff"/>
      <path id="Path_2316" data-name="Path 2316" d="M97.178,5.293,68.8,25.984h-.812L96.366,5.293Z" transform="translate(-31.56 -5.527)" fill="#fff"/>
      <path id="Path_2317" data-name="Path 2317" d="M97.632,5.293,69.256,25.984h-.812L96.82,5.293Z" transform="translate(-31.203 -5.527)" fill="#fff"/>
      <path id="Path_2318" data-name="Path 2318" d="M98.086,5.293,69.71,25.984H68.9L97.274,5.293Z" transform="translate(-30.846 -5.527)" fill="#fff"/>
      <path id="Path_2319" data-name="Path 2319" d="M98.539,5.293,70.164,25.984h-.812L97.728,5.293Z" transform="translate(-30.488 -5.527)" fill="#fff"/>
      <path id="Path_2320" data-name="Path 2320" d="M98.993,5.293,70.618,25.984h-.812L98.182,5.293Z" transform="translate(-30.131 -5.527)" fill="#fff"/>
      <path id="Path_2321" data-name="Path 2321" d="M98.785,5.776,71.071,25.984H70.26L98.635,5.293h.15Z" transform="translate(-29.773 -5.527)" fill="#fff"/>
      <path id="Path_2322" data-name="Path 2322" d="M98.428,6.155l-26.9,19.616h-.812L98.428,5.563Z" transform="translate(-29.416 -5.314)" fill="#fff"/>
      <path id="Path_2323" data-name="Path 2323" d="M98.07,6.486,71.978,25.512h-.81L98.07,5.894Z" transform="translate(-29.058 -5.054)" fill="#fff"/>
      <path id="Path_2324" data-name="Path 2324" d="M97.713,6.817,72.432,25.251h-.812L97.713,6.225Z" transform="translate(-28.701 -4.793)" fill="#fff"/>
      <path id="Path_2325" data-name="Path 2325" d="M97.356,7.148,72.886,24.99h-.812L97.356,6.556Z" transform="translate(-28.344 -4.533)" fill="#fff"/>
      <path id="Path_2326" data-name="Path 2326" d="M97,7.478,73.34,24.729h-.812L97,6.887Z" transform="translate(-27.986 -4.272)" fill="#fff"/>
      <path id="Path_2327" data-name="Path 2327" d="M96.641,7.809,73.794,24.468h-.812L96.641,7.217Z" transform="translate(-27.629 -4.011)" fill="#fff"/>
      <path id="Path_2328" data-name="Path 2328" d="M96.283,8.14,74.247,24.208h-.81L96.283,7.548Z" transform="translate(-27.271 -3.751)" fill="#fff"/>
      <path id="Path_2329" data-name="Path 2329" d="M95.926,8.471,74.7,23.947H73.89L95.926,7.879Z" transform="translate(-26.914 -3.49)" fill="#fff"/>
      <path id="Path_2330" data-name="Path 2330" d="M95.569,8.8,75.155,23.686h-.812L95.569,8.21Z" transform="translate(-26.557 -3.229)" fill="#fff"/>
      <path id="Path_2331" data-name="Path 2331" d="M95.211,9.133l-19.6,14.294H74.8L95.211,8.541Z" transform="translate(-26.199 -2.969)" fill="#fff"/>
      <path id="Path_2332" data-name="Path 2332" d="M94.853,9.464l-18.792,13.7h-.81l19.6-14.294Z" transform="translate(-25.841 -2.708)" fill="#fff"/>
      <path id="Path_2333" data-name="Path 2333" d="M94.5,9.795,76.516,22.905H75.7L94.5,9.2Z" transform="translate(-25.485 -2.448)" fill="#fff"/>
      <path id="Path_2334" data-name="Path 2334" d="M94.139,10.125,76.97,22.644h-.812L94.139,9.534Z" transform="translate(-25.127 -2.187)" fill="#fff"/>
      <path id="Path_2335" data-name="Path 2335" d="M93.781,10.456,77.424,22.383h-.812L93.781,9.865Z" transform="translate(-24.769 -1.926)" fill="#fff"/>
      <path id="Path_2336" data-name="Path 2336" d="M93.424,10.787,77.877,22.123h-.81L93.424,10.2Z" transform="translate(-24.412 -1.666)" fill="#fff"/>
      <path id="Path_2337" data-name="Path 2337" d="M93.067,11.118,78.331,21.862H77.52L93.067,10.526Z" transform="translate(-24.055 -1.405)" fill="#fff"/>
      <path id="Path_2338" data-name="Path 2338" d="M92.709,11.449,78.785,21.6h-.812L92.709,10.857Z" transform="translate(-23.697 -1.145)" fill="#fff"/>
      <path id="Path_2339" data-name="Path 2339" d="M92.352,11.78,79.239,21.342h-.812L92.352,11.188Z" transform="translate(-23.34 -0.884)" fill="#fff"/>
      <path id="Path_2340" data-name="Path 2340" d="M91.994,12.111l-12.3,8.97h-.812l13.112-9.562Z" transform="translate(-22.982 -0.623)" fill="#fff"/>
      <path id="Path_2341" data-name="Path 2341" d="M91.637,12.442,80.146,20.82h-.81l12.3-8.97Z" transform="translate(-22.625 -0.363)" fill="#fff"/>
      <path id="Path_2342" data-name="Path 2342" d="M91.28,12.772,80.6,20.559h-.812L91.28,12.181Z" transform="translate(-22.268 -0.102)" fill="#fff"/>
      <path id="Path_2343" data-name="Path 2343" d="M90.922,13.1l-9.868,7.2h-.812l10.679-7.787Z" transform="translate(-21.91 0.159)" fill="#fff"/>
      <path id="Path_2344" data-name="Path 2344" d="M90.565,13.434l-9.056,6.6H80.7l9.868-7.2Z" transform="translate(-21.553 0.419)" fill="#fff"/>
      <path id="Path_2345" data-name="Path 2345" d="M90.207,13.765l-8.246,6.012h-.81l9.056-6.6Z" transform="translate(-21.195 0.68)" fill="#fff"/>
      <path id="Path_2346" data-name="Path 2346" d="M89.85,14.1l-7.435,5.42H81.6L89.85,13.5Z" transform="translate(-20.838 0.94)" fill="#fff"/>
      <path id="Path_2347" data-name="Path 2347" d="M89.493,14.427l-6.623,4.83h-.812l7.435-5.422Z" transform="translate(-20.481 1.201)" fill="#fff"/>
      <path id="Path_2348" data-name="Path 2348" d="M89.135,14.758,83.323,19h-.812l6.623-4.83Z" transform="translate(-20.123 1.462)" fill="#fff"/>
      <path id="Path_2349" data-name="Path 2349" d="M88.777,15.088l-5,3.647h-.81L88.777,14.5Z" transform="translate(-19.765 1.722)" fill="#fff"/>
      <path id="Path_2350" data-name="Path 2350" d="M88.421,15.419l-4.19,3.055h-.812l5-3.647Z" transform="translate(-19.409 1.983)" fill="#fff"/>
      <path id="Path_2351" data-name="Path 2351" d="M88.063,15.75l-3.379,2.463h-.812l4.19-3.055Z" transform="translate(-19.051 2.243)" fill="#fff"/>
      <path id="Path_2352" data-name="Path 2352" d="M87.705,16.081l-2.567,1.872h-.812l3.379-2.463Z" transform="translate(-18.693 2.504)" fill="#fff"/>
      <path id="Path_2353" data-name="Path 2353" d="M87.348,16.412l-1.755,1.28h-.812l2.567-1.872Z" transform="translate(-18.336 2.765)" fill="#fff"/>
      <path id="Path_2354" data-name="Path 2354" d="M86.99,16.743l-.946.688h-.81l1.755-1.28Z" transform="translate(-17.978 3.025)" fill="#fff"/>
      <path id="Path_2355" data-name="Path 2355" d="M86.633,17.074l-.134.1h-.812l.946-.69Z" transform="translate(-17.621 3.286)" fill="#fff"/>
      <path id="Path_2356" data-name="Path 2356" d="M86.142,16.911l.134-.1v.1Z" transform="translate(-17.264 3.546)" fill="#fff"/>
    </g>
  </g>
  <g id="Group_1313" data-name="Group 1313">
    <g id="Group_1312" data-name="Group 1312" clip-path="url(#clip-path)">
      <path id="Path_2358" data-name="Path 2358" d="M59.186,143.5a5.248,5.248,0,0,0,.542.134V38.867l-16.972-15.8L115.9,4.206l-3.245-3.03A4.336,4.336,0,0,0,109.684,0a4.4,4.4,0,0,0-1.094.139L37.52,18.425A2.8,2.8,0,0,0,35.382,21.4l.007.093-.034.17,0,98.664a2.9,2.9,0,0,0,.915,2.108l22.2,20.681a2.917,2.917,0,0,0,.715.384" transform="translate(27.848)" fill="#fff"/>
    </g>
  </g>
  <g id="Group_1315" data-name="Group 1315" transform="translate(63.204)">
    <g id="Group_1314" data-name="Group 1314" clip-path="url(#clip-path-4)">
      <path id="Path_2359" data-name="Path 2359" d="M79.8,0,35.355,32.4V0Z" transform="translate(-35.356 0)" fill="#fff"/>
      <path id="Path_2360" data-name="Path 2360" d="M80.607,0,35.356,33V32.4L79.8,0Z" transform="translate(-35.356 0)" fill="#fff"/>
      <path id="Path_2361" data-name="Path 2361" d="M81.419,0,35.356,33.588V33L80.607,0Z" transform="translate(-35.356 0)" fill="#fff"/>
      <path id="Path_2362" data-name="Path 2362" d="M82.23,0,35.356,34.178v-.59L81.418,0Z" transform="translate(-35.356 0)" fill="#fff"/>
      <path id="Path_2363" data-name="Path 2363" d="M83.041,0,35.356,34.77v-.592L82.23,0Z" transform="translate(-35.356 0)" fill="#fff"/>
      <path id="Path_2364" data-name="Path 2364" d="M83.853,0l-48.5,35.362V34.77L83.041,0Z" transform="translate(-35.356 0)" fill="#fff"/>
      <path id="Path_2365" data-name="Path 2365" d="M84.663,0,35.356,35.953v-.592L83.852,0Z" transform="translate(-35.356 0)" fill="#fff"/>
      <path id="Path_2366" data-name="Path 2366" d="M85.475,0,35.356,36.545v-.592L84.663,0Z" transform="translate(-35.356 0)" fill="#fff"/>
      <path id="Path_2367" data-name="Path 2367" d="M86.286,0,35.356,37.137v-.592L85.474,0Z" transform="translate(-35.356 0)" fill="#fff"/>
      <path id="Path_2368" data-name="Path 2368" d="M87.1,0,35.355,37.729v-.592L86.286,0Z" transform="translate(-35.356 0)" fill="#fff"/>
      <path id="Path_2369" data-name="Path 2369" d="M87.908,0,35.356,38.32v-.592L87.1,0Z" transform="translate(-35.356 0)" fill="#fff"/>
      <path id="Path_2370" data-name="Path 2370" d="M88.719,0,35.356,38.91v-.59L87.908,0Z" transform="translate(-35.356 0)" fill="#fff"/>
      <path id="Path_2371" data-name="Path 2371" d="M89.531,0,35.356,39.5V38.91L88.719,0Z" transform="translate(-35.356 0)" fill="#fff"/>
      <path id="Path_2372" data-name="Path 2372" d="M90.342,0,35.355,40.094V39.5L89.53,0Z" transform="translate(-35.356 0)" fill="#fff"/>
      <path id="Path_2373" data-name="Path 2373" d="M91.153,0l-55.8,40.685v-.592L90.341,0Z" transform="translate(-35.356 0)" fill="#fff"/>
      <path id="Path_2374" data-name="Path 2374" d="M91.964,0,35.356,41.277v-.592L91.152,0Z" transform="translate(-35.356 0)" fill="#fff"/>
      <path id="Path_2375" data-name="Path 2375" d="M92.775,0,35.356,41.869v-.592L91.964,0Z" transform="translate(-35.356 0)" fill="#fff"/>
      <path id="Path_2376" data-name="Path 2376" d="M93.587,0,35.356,42.461v-.592L92.775,0Z" transform="translate(-35.356 0)" fill="#fff"/>
      <path id="Path_2377" data-name="Path 2377" d="M94.4,0,35.356,43.052v-.592L93.586,0Z" transform="translate(-35.356 0)" fill="#fff"/>
      <path id="Path_2378" data-name="Path 2378" d="M95.209,0,35.356,43.642v-.59L94.4,0Z" transform="translate(-35.356 0)" fill="#fff"/>
      <path id="Path_2379" data-name="Path 2379" d="M96.02,0,35.356,44.234v-.592L95.208,0Z" transform="translate(-35.356 0)" fill="#fff"/>
      <path id="Path_2380" data-name="Path 2380" d="M96.831,0,35.356,44.826v-.592L96.02,0Z" transform="translate(-35.356 0)" fill="#fff"/>
      <path id="Path_2381" data-name="Path 2381" d="M97.643,0,35.356,45.417v-.592L96.831,0Z" transform="translate(-35.356 0)" fill="#fff"/>
      <path id="Path_2382" data-name="Path 2382" d="M98.453,0l-63.1,46.009v-.592L97.642,0Z" transform="translate(-35.356 0)" fill="#fff"/>
      <path id="Path_2383" data-name="Path 2383" d="M99.265,0,35.356,46.6v-.592L98.453,0Z" transform="translate(-35.356 0)" fill="#fff"/>
      <path id="Path_2384" data-name="Path 2384" d="M100.076,0,35.356,47.192V46.6L99.265,0Z" transform="translate(-35.356 0)" fill="#fff"/>
      <path id="Path_2385" data-name="Path 2385" d="M100.887,0,35.355,47.784v-.592L100.076,0Z" transform="translate(-35.356 0)" fill="#fff"/>
      <path id="Path_2386" data-name="Path 2386" d="M101.7,0,35.356,48.374v-.59L100.886,0Z" transform="translate(-35.356 0)" fill="#fff"/>
      <path id="Path_2387" data-name="Path 2387" d="M102.509,0,35.356,48.966v-.592L101.7,0Z" transform="translate(-35.356 0)" fill="#fff"/>
      <path id="Path_2388" data-name="Path 2388" d="M103.321,0,35.356,49.558v-.592L102.509,0Z" transform="translate(-35.356 0)" fill="#fff"/>
      <path id="Path_2389" data-name="Path 2389" d="M104.132,0,35.356,50.149v-.592L103.321,0Z" transform="translate(-35.356 0)" fill="#fff"/>
      <path id="Path_2390" data-name="Path 2390" d="M104.943,0,35.356,50.741v-.592L104.131,0Z" transform="translate(-35.356 0)" fill="#fff"/>
      <path id="Path_2391" data-name="Path 2391" d="M105.754,0l-70.4,51.333v-.592L104.942,0Z" transform="translate(-35.356 0)" fill="#fff"/>
      <path id="Path_2392" data-name="Path 2392" d="M106.565,0,35.356,51.924v-.592L105.754,0Z" transform="translate(-35.356 0)" fill="#fff"/>
      <path id="Path_2393" data-name="Path 2393" d="M107.377,0,35.356,52.516v-.592L106.565,0Z" transform="translate(-35.356 0)" fill="#fff"/>
      <path id="Path_2394" data-name="Path 2394" d="M108.188,0,35.355,53.106v-.59L107.377,0Z" transform="translate(-35.356 0)" fill="#fff"/>
      <path id="Path_2395" data-name="Path 2395" d="M109,0,35.356,53.7v-.592L108.187,0Z" transform="translate(-35.356 0)" fill="#fff"/>
      <path id="Path_2396" data-name="Path 2396" d="M109.81,0,35.356,54.289V53.7L109,0Z" transform="translate(-35.356 0)" fill="#fff"/>
      <path id="Path_2397" data-name="Path 2397" d="M110.622,0,35.356,54.881v-.592L109.81,0Z" transform="translate(-35.356 0)" fill="#fff"/>
      <path id="Path_2398" data-name="Path 2398" d="M111.433,0,35.355,55.473v-.592L110.621,0Z" transform="translate(-35.356 0)" fill="#fff"/>
      <path id="Path_2399" data-name="Path 2399" d="M112.243,0,35.356,56.065v-.592L111.432,0Z" transform="translate(-35.356 0)" fill="#fff"/>
      <path id="Path_2400" data-name="Path 2400" d="M113.055,0l-77.7,56.656v-.592L112.243,0Z" transform="translate(-35.356 0)" fill="#fff"/>
      <path id="Path_2401" data-name="Path 2401" d="M113.866,0,35.356,57.246v-.59L113.055,0Z" transform="translate(-35.356 0)" fill="#fff"/>
      <path id="Path_2402" data-name="Path 2402" d="M114.678,0,35.356,57.838v-.592L113.866,0Z" transform="translate(-35.356 0)" fill="#fff"/>
      <path id="Path_2403" data-name="Path 2403" d="M115.488,0,35.356,58.43v-.592L114.677,0Z" transform="translate(-35.356 0)" fill="#fff"/>
      <path id="Path_2404" data-name="Path 2404" d="M115.9.294,35.356,59.022V58.43L115.489,0h.408Z" transform="translate(-35.356 0)" fill="#fff"/>
      <path id="Path_2405" data-name="Path 2405" d="M115.9.756,35.356,59.484v-.592L115.9.164Z" transform="translate(-35.356 0.129)" fill="#fff"/>
      <path id="Path_2406" data-name="Path 2406" d="M115.9,1.087,35.356,59.815v-.592L115.9.5Z" transform="translate(-35.356 0.39)" fill="#fff"/>
      <path id="Path_2407" data-name="Path 2407" d="M115.9,1.418,35.356,60.146v-.592L115.9.826Z" transform="translate(-35.356 0.651)" fill="#fff"/>
      <path id="Path_2408" data-name="Path 2408" d="M115.9,1.749,35.356,60.477v-.592L115.9,1.157Z" transform="translate(-35.356 0.911)" fill="#fff"/>
      <path id="Path_2409" data-name="Path 2409" d="M115.9,2.08,35.356,60.808v-.592L115.9,1.488Z" transform="translate(-35.356 1.172)" fill="#fff"/>
      <path id="Path_2410" data-name="Path 2410" d="M115.9,2.41,35.356,61.139v-.592L115.9,1.819Z" transform="translate(-35.356 1.433)" fill="#fff"/>
      <path id="Path_2411" data-name="Path 2411" d="M115.9,2.741,35.356,61.469v-.592L115.9,2.149Z" transform="translate(-35.356 1.693)" fill="#fff"/>
      <path id="Path_2412" data-name="Path 2412" d="M115.9,3.072,35.356,61.8v-.592L115.9,2.48Z" transform="translate(-35.356 1.954)" fill="#fff"/>
      <path id="Path_2413" data-name="Path 2413" d="M115.9,3.4,35.356,62.131v-.592L115.9,2.811Z" transform="translate(-35.356 2.214)" fill="#fff"/>
      <path id="Path_2414" data-name="Path 2414" d="M115.9,3.734,35.356,62.462V61.87L115.9,3.142Z" transform="translate(-35.356 2.475)" fill="#fff"/>
      <path id="Path_2415" data-name="Path 2415" d="M115.9,4.065,35.356,62.793V62.2L115.9,3.473Z" transform="translate(-35.356 2.736)" fill="#fff"/>
      <path id="Path_2416" data-name="Path 2416" d="M115.9,4.4,35.356,63.124v-.592L115.9,3.8Z" transform="translate(-35.356 2.996)" fill="#fff"/>
      <path id="Path_2417" data-name="Path 2417" d="M115.9,4.727,35.356,63.455v-.592L115.9,4.135Z" transform="translate(-35.356 3.257)" fill="#fff"/>
      <path id="Path_2418" data-name="Path 2418" d="M115.9,5.057,35.356,63.785v-.592L115.9,4.466Z" transform="translate(-35.356 3.517)" fill="#fff"/>
      <path id="Path_2419" data-name="Path 2419" d="M115.9,5.388,35.356,64.116v-.592L115.9,4.8Z" transform="translate(-35.356 3.778)" fill="#fff"/>
      <path id="Path_2420" data-name="Path 2420" d="M115.9,5.719,35.356,64.447v-.592L115.9,5.127Z" transform="translate(-35.356 4.039)" fill="#fff"/>
      <path id="Path_2421" data-name="Path 2421" d="M115.9,6.05,35.356,64.778v-.592L115.9,5.458Z" transform="translate(-35.356 4.299)" fill="#fff"/>
      <path id="Path_2422" data-name="Path 2422" d="M115.9,6.381,35.356,65.109v-.592L115.9,5.789Z" transform="translate(-35.356 4.56)" fill="#fff"/>
      <path id="Path_2423" data-name="Path 2423" d="M115.9,6.712,35.356,65.44v-.592L115.9,6.12Z" transform="translate(-35.356 4.82)" fill="#fff"/>
      <path id="Path_2424" data-name="Path 2424" d="M115.9,7.043,35.356,65.771v-.592L115.9,6.451Z" transform="translate(-35.356 5.081)" fill="#fff"/>
      <path id="Path_2425" data-name="Path 2425" d="M115.9,7.374,35.356,66.1V65.51L115.9,6.782Z" transform="translate(-35.356 5.342)" fill="#fff"/>
      <path id="Path_2426" data-name="Path 2426" d="M115.9,7.7,35.356,66.432v-.592L115.9,7.113Z" transform="translate(-35.356 5.602)" fill="#fff"/>
      <path id="Path_2427" data-name="Path 2427" d="M115.9,8.035,35.356,66.763v-.592L115.9,7.443Z" transform="translate(-35.356 5.863)" fill="#fff"/>
      <path id="Path_2428" data-name="Path 2428" d="M115.9,8.366,35.356,67.094V66.5L115.9,7.774Z" transform="translate(-35.356 6.124)" fill="#fff"/>
      <path id="Path_2429" data-name="Path 2429" d="M115.9,8.7,35.356,67.425v-.592L115.9,8.105Z" transform="translate(-35.356 6.384)" fill="#fff"/>
      <path id="Path_2430" data-name="Path 2430" d="M115.9,9.028,35.356,67.756v-.592L115.9,8.436Z" transform="translate(-35.356 6.645)" fill="#fff"/>
      <path id="Path_2431" data-name="Path 2431" d="M115.9,9.359,35.356,68.087V67.5L115.9,8.767Z" transform="translate(-35.356 6.905)" fill="#fff"/>
      <path id="Path_2432" data-name="Path 2432" d="M115.9,9.69,35.356,68.418v-.592L115.9,9.1Z" transform="translate(-35.356 7.166)" fill="#fff"/>
      <path id="Path_2433" data-name="Path 2433" d="M115.9,10.02,35.356,68.749v-.592L115.9,9.429Z" transform="translate(-35.356 7.427)" fill="#fff"/>
      <path id="Path_2434" data-name="Path 2434" d="M115.9,10.351,35.356,69.079v-.592L115.9,9.76Z" transform="translate(-35.356 7.687)" fill="#fff"/>
      <path id="Path_2435" data-name="Path 2435" d="M115.9,10.682,35.356,69.41v-.592L115.9,10.091Z" transform="translate(-35.356 7.948)" fill="#fff"/>
      <path id="Path_2436" data-name="Path 2436" d="M115.9,11.013,35.356,69.741V69.15L115.9,10.421Z" transform="translate(-35.356 8.208)" fill="#fff"/>
      <path id="Path_2437" data-name="Path 2437" d="M115.9,11.344,35.356,70.072V69.48L115.9,10.752Z" transform="translate(-35.356 8.469)" fill="#fff"/>
      <path id="Path_2438" data-name="Path 2438" d="M115.9,11.675,35.356,70.4v-.592L115.9,11.083Z" transform="translate(-35.356 8.73)" fill="#fff"/>
      <path id="Path_2439" data-name="Path 2439" d="M115.9,12.006,35.356,70.734v-.592L115.9,11.414Z" transform="translate(-35.356 8.99)" fill="#fff"/>
      <path id="Path_2440" data-name="Path 2440" d="M115.9,12.337,35.356,71.065v-.592L115.9,11.745Z" transform="translate(-35.356 9.251)" fill="#fff"/>
      <path id="Path_2441" data-name="Path 2441" d="M115.9,12.667,35.356,71.4V70.8L115.9,12.076Z" transform="translate(-35.356 9.512)" fill="#fff"/>
      <path id="Path_2442" data-name="Path 2442" d="M115.9,13,35.356,71.726v-.592L115.9,12.407Z" transform="translate(-35.356 9.772)" fill="#fff"/>
      <path id="Path_2443" data-name="Path 2443" d="M115.9,13.329,35.356,72.057v-.592L115.9,12.737Z" transform="translate(-35.356 10.033)" fill="#fff"/>
      <path id="Path_2444" data-name="Path 2444" d="M115.9,13.66,35.356,72.388V71.8L115.9,13.068Z" transform="translate(-35.356 10.293)" fill="#fff"/>
      <path id="Path_2445" data-name="Path 2445" d="M115.9,13.991,35.356,72.719v-.592L115.9,13.4Z" transform="translate(-35.356 10.554)" fill="#fff"/>
      <path id="Path_2446" data-name="Path 2446" d="M115.9,14.322,35.356,73.05v-.592L115.9,13.73Z" transform="translate(-35.356 10.815)" fill="#fff"/>
      <path id="Path_2447" data-name="Path 2447" d="M115.9,14.653,35.356,73.381v-.592L115.9,14.061Z" transform="translate(-35.356 11.075)" fill="#fff"/>
      <path id="Path_2448" data-name="Path 2448" d="M115.9,14.984,35.356,73.712V73.12L115.9,14.392Z" transform="translate(-35.356 11.336)" fill="#fff"/>
      <path id="Path_2449" data-name="Path 2449" d="M115.9,15.314,35.356,74.043v-.592L115.9,14.723Z" transform="translate(-35.356 11.596)" fill="#fff"/>
      <path id="Path_2450" data-name="Path 2450" d="M115.9,15.645,35.356,74.373v-.592L115.9,15.054Z" transform="translate(-35.356 11.857)" fill="#fff"/>
      <path id="Path_2451" data-name="Path 2451" d="M115.9,15.976,35.356,74.7v-.592L115.9,15.384Z" transform="translate(-35.356 12.118)" fill="#fff"/>
      <path id="Path_2452" data-name="Path 2452" d="M115.9,16.307,35.356,75.035v-.592L115.9,15.715Z" transform="translate(-35.356 12.378)" fill="#fff"/>
      <path id="Path_2453" data-name="Path 2453" d="M115.9,16.638,35.356,75.366v-.592L115.9,16.046Z" transform="translate(-35.356 12.639)" fill="#fff"/>
      <path id="Path_2454" data-name="Path 2454" d="M115.9,16.969,35.356,75.7v-.592L115.9,16.377Z" transform="translate(-35.356 12.9)" fill="#fff"/>
      <path id="Path_2455" data-name="Path 2455" d="M115.9,17.3,35.356,76.028v-.592L115.9,16.708Z" transform="translate(-35.356 13.16)" fill="#fff"/>
      <path id="Path_2456" data-name="Path 2456" d="M115.9,17.631,35.356,76.359v-.592L115.9,17.039Z" transform="translate(-35.356 13.421)" fill="#fff"/>
      <path id="Path_2457" data-name="Path 2457" d="M115.9,17.961,35.356,76.69V76.1L115.9,17.37Z" transform="translate(-35.356 13.681)" fill="#fff"/>
      <path id="Path_2458" data-name="Path 2458" d="M115.9,18.292,35.356,77.02v-.592L115.9,17.7Z" transform="translate(-35.356 13.942)" fill="#fff"/>
      <path id="Path_2459" data-name="Path 2459" d="M115.9,18.623,35.356,77.351V76.76L115.9,18.031Z" transform="translate(-35.356 14.203)" fill="#fff"/>
      <path id="Path_2460" data-name="Path 2460" d="M115.9,18.954,35.356,77.682V77.09L115.9,18.362Z" transform="translate(-35.356 14.463)" fill="#fff"/>
      <path id="Path_2461" data-name="Path 2461" d="M115.9,19.285,35.356,78.013v-.592L115.9,18.693Z" transform="translate(-35.356 14.724)" fill="#fff"/>
      <path id="Path_2462" data-name="Path 2462" d="M115.9,19.616,35.356,78.344v-.592L115.9,19.024Z" transform="translate(-35.356 14.984)" fill="#fff"/>
      <path id="Path_2463" data-name="Path 2463" d="M115.9,19.947,35.356,78.675v-.592L115.9,19.355Z" transform="translate(-35.356 15.245)" fill="#fff"/>
      <path id="Path_2464" data-name="Path 2464" d="M115.9,20.278,35.356,79.006v-.592L115.9,19.686Z" transform="translate(-35.356 15.506)" fill="#fff"/>
      <path id="Path_2465" data-name="Path 2465" d="M115.9,20.608,35.356,79.337v-.592L115.9,20.017Z" transform="translate(-35.356 15.766)" fill="#fff"/>
      <path id="Path_2466" data-name="Path 2466" d="M115.9,20.939,35.356,79.667v-.592L115.9,20.347Z" transform="translate(-35.356 16.027)" fill="#fff"/>
      <path id="Path_2467" data-name="Path 2467" d="M115.9,21.27,35.356,80v-.592L115.9,20.678Z" transform="translate(-35.356 16.287)" fill="#fff"/>
      <path id="Path_2468" data-name="Path 2468" d="M115.9,21.6,35.356,80.329v-.592L115.9,21.009Z" transform="translate(-35.356 16.548)" fill="#fff"/>
      <path id="Path_2469" data-name="Path 2469" d="M115.9,21.932,35.356,80.66v-.592L115.9,21.34Z" transform="translate(-35.356 16.809)" fill="#fff"/>
      <path id="Path_2470" data-name="Path 2470" d="M115.9,22.263,35.356,80.991V80.4L115.9,21.671Z" transform="translate(-35.356 17.069)" fill="#fff"/>
      <path id="Path_2471" data-name="Path 2471" d="M115.9,22.594,35.356,81.322V80.73L115.9,22Z" transform="translate(-35.356 17.33)" fill="#fff"/>
      <path id="Path_2472" data-name="Path 2472" d="M115.9,22.925,35.356,81.653v-.592L115.9,22.333Z" transform="translate(-35.356 17.591)" fill="#fff"/>
      <path id="Path_2473" data-name="Path 2473" d="M115.9,23.255,35.356,81.984v-.592L115.9,22.664Z" transform="translate(-35.356 17.851)" fill="#fff"/>
      <path id="Path_2474" data-name="Path 2474" d="M115.9,23.586,35.356,82.314v-.592L115.9,22.995Z" transform="translate(-35.356 18.112)" fill="#fff"/>
      <path id="Path_2475" data-name="Path 2475" d="M115.9,23.917,35.356,82.645v-.592L115.9,23.325Z" transform="translate(-35.356 18.372)" fill="#fff"/>
      <path id="Path_2476" data-name="Path 2476" d="M115.9,24.248,35.356,82.976v-.592L115.9,23.656Z" transform="translate(-35.356 18.633)" fill="#fff"/>
      <path id="Path_2477" data-name="Path 2477" d="M115.9,24.579,35.356,83.307v-.592L115.9,23.987Z" transform="translate(-35.356 18.894)" fill="#fff"/>
      <path id="Path_2478" data-name="Path 2478" d="M115.9,24.91,35.356,83.638v-.592L115.9,24.318Z" transform="translate(-35.356 19.154)" fill="#fff"/>
      <path id="Path_2479" data-name="Path 2479" d="M115.9,25.241,35.356,83.969v-.592L115.9,24.649Z" transform="translate(-35.356 19.415)" fill="#fff"/>
      <path id="Path_2480" data-name="Path 2480" d="M115.9,25.572,35.356,84.3v-.592L115.9,24.98Z" transform="translate(-35.356 19.675)" fill="#fff"/>
      <path id="Path_2481" data-name="Path 2481" d="M115.9,25.9,35.356,84.63v-.592L115.9,25.311Z" transform="translate(-35.356 19.936)" fill="#fff"/>
      <path id="Path_2482" data-name="Path 2482" d="M115.9,26.233,35.356,84.961V84.37L115.9,25.642Z" transform="translate(-35.356 20.197)" fill="#fff"/>
      <path id="Path_2483" data-name="Path 2483" d="M115.9,26.564,35.356,85.292V84.7L115.9,25.972Z" transform="translate(-35.356 20.457)" fill="#fff"/>
      <path id="Path_2484" data-name="Path 2484" d="M115.9,26.9,35.356,85.623v-.592L115.9,26.3Z" transform="translate(-35.356 20.718)" fill="#fff"/>
      <path id="Path_2485" data-name="Path 2485" d="M115.9,27.226,35.356,85.954v-.592L115.9,26.634Z" transform="translate(-35.356 20.979)" fill="#fff"/>
      <path id="Path_2486" data-name="Path 2486" d="M115.9,27.557,35.356,86.285v-.592L115.9,26.965Z" transform="translate(-35.356 21.239)" fill="#fff"/>
      <path id="Path_2487" data-name="Path 2487" d="M115.9,27.888,35.356,86.616v-.592L115.9,27.3Z" transform="translate(-35.356 21.5)" fill="#fff"/>
      <path id="Path_2488" data-name="Path 2488" d="M115.9,28.218,35.356,86.947v-.592L115.9,27.627Z" transform="translate(-35.356 21.76)" fill="#fff"/>
      <path id="Path_2489" data-name="Path 2489" d="M115.9,28.549,35.356,87.277v-.592L115.9,27.958Z" transform="translate(-35.356 22.021)" fill="#fff"/>
      <path id="Path_2490" data-name="Path 2490" d="M115.9,28.88,35.356,87.608v-.592L115.9,28.288Z" transform="translate(-35.356 22.282)" fill="#fff"/>
      <path id="Path_2491" data-name="Path 2491" d="M115.9,29.242,35.356,87.97v-.622L115.9,28.62Z" transform="translate(-35.356 22.542)" fill="#fff"/>
      <path id="Path_2492" data-name="Path 2492" d="M115.9,29.59,35.356,88.318V87.7L115.9,28.968Z" transform="translate(-35.356 22.817)" fill="#fff"/>
      <path id="Path_2493" data-name="Path 2493" d="M115.9,29.938,35.356,88.666v-.622L115.9,29.316Z" transform="translate(-35.356 23.091)" fill="#fff"/>
      <path id="Path_2494" data-name="Path 2494" d="M115.9,30.286,35.356,89.014v-.622L115.9,29.664Z" transform="translate(-35.356 23.365)" fill="#fff"/>
      <path id="Path_2495" data-name="Path 2495" d="M115.9,30.634,35.356,89.362V88.74L115.9,30.012Z" transform="translate(-35.356 23.639)" fill="#fff"/>
      <path id="Path_2496" data-name="Path 2496" d="M115.9,30.983,35.356,89.711v-.622L115.9,30.361Z" transform="translate(-35.356 23.914)" fill="#fff"/>
      <path id="Path_2497" data-name="Path 2497" d="M115.9,31.331,35.356,90.059v-.622L115.9,30.709Z" transform="translate(-35.356 24.188)" fill="#fff"/>
      <path id="Path_2498" data-name="Path 2498" d="M115.9,31.679,35.356,90.407v-.622L115.9,31.057Z" transform="translate(-35.356 24.462)" fill="#fff"/>
      <path id="Path_2499" data-name="Path 2499" d="M115.9,32.027,35.356,90.755v-.622L115.9,31.4Z" transform="translate(-35.356 24.736)" fill="#fff"/>
      <path id="Path_2500" data-name="Path 2500" d="M115.9,32.375,35.356,91.1v-.622L115.9,31.753Z" transform="translate(-35.356 25.011)" fill="#fff"/>
      <path id="Path_2501" data-name="Path 2501" d="M115.9,32.723,35.356,91.451v-.622L115.9,32.1Z" transform="translate(-35.356 25.285)" fill="#fff"/>
      <path id="Path_2502" data-name="Path 2502" d="M115.9,33.072,35.356,91.8v-.622L115.9,32.45Z" transform="translate(-35.356 25.559)" fill="#fff"/>
      <path id="Path_2503" data-name="Path 2503" d="M115.9,33.42,35.356,92.148v-.622L115.9,32.8Z" transform="translate(-35.356 25.833)" fill="#fff"/>
      <path id="Path_2504" data-name="Path 2504" d="M115.9,33.768,35.356,92.5v-.622L115.9,33.146Z" transform="translate(-35.356 26.108)" fill="#fff"/>
      <path id="Path_2505" data-name="Path 2505" d="M115.9,34.116,35.356,92.844v-.622L115.9,33.494Z" transform="translate(-35.356 26.382)" fill="#fff"/>
      <path id="Path_2506" data-name="Path 2506" d="M115.9,34.464,35.356,93.192V92.57L115.9,33.842Z" transform="translate(-35.356 26.656)" fill="#fff"/>
      <path id="Path_2507" data-name="Path 2507" d="M115.9,34.812,35.356,93.541v-.622L115.9,34.19Z" transform="translate(-35.356 26.93)" fill="#fff"/>
      <path id="Path_2508" data-name="Path 2508" d="M115.9,35.161,35.356,93.889v-.622L115.9,34.538Z" transform="translate(-35.356 27.204)" fill="#fff"/>
      <path id="Path_2509" data-name="Path 2509" d="M115.9,35.509,35.356,94.237v-.622L115.9,34.887Z" transform="translate(-35.356 27.479)" fill="#fff"/>
      <path id="Path_2510" data-name="Path 2510" d="M115.9,35.857,35.356,94.585v-.622L115.9,35.235Z" transform="translate(-35.356 27.753)" fill="#fff"/>
      <path id="Path_2511" data-name="Path 2511" d="M115.9,36.205,35.356,94.933v-.622L115.9,35.583Z" transform="translate(-35.356 28.027)" fill="#fff"/>
      <path id="Path_2512" data-name="Path 2512" d="M115.9,36.553,35.356,95.281v-.622L115.9,35.931Z" transform="translate(-35.356 28.301)" fill="#fff"/>
      <path id="Path_2513" data-name="Path 2513" d="M115.9,36.9,35.356,95.63v-.622L115.9,36.279Z" transform="translate(-35.356 28.576)" fill="#fff"/>
      <path id="Path_2514" data-name="Path 2514" d="M115.9,37.25,35.356,95.978v-.622L115.9,36.627Z" transform="translate(-35.356 28.85)" fill="#fff"/>
      <path id="Path_2515" data-name="Path 2515" d="M115.9,37.6,35.356,96.326V95.7L115.9,36.976Z" transform="translate(-35.356 29.124)" fill="#fff"/>
      <path id="Path_2516" data-name="Path 2516" d="M115.9,37.946,35.356,96.674v-.622L115.9,37.324Z" transform="translate(-35.356 29.398)" fill="#fff"/>
      <path id="Path_2517" data-name="Path 2517" d="M115.9,38.294,35.356,97.022V96.4L115.9,37.672Z" transform="translate(-35.356 29.673)" fill="#fff"/>
      <path id="Path_2518" data-name="Path 2518" d="M115.9,38.642,35.356,97.37v-.622L115.9,38.02Z" transform="translate(-35.356 29.947)" fill="#fff"/>
      <path id="Path_2519" data-name="Path 2519" d="M115.9,38.99,35.565,97.565l-.209-.286V97.1L115.9,38.368Z" transform="translate(-35.356 30.221)" fill="#fff"/>
      <path id="Path_2520" data-name="Path 2520" d="M115.8,39.339,35.77,97.7l-.3-.408L115.8,38.716Z" transform="translate(-35.264 30.495)" fill="#fff"/>
      <path id="Path_2521" data-name="Path 2521" d="M115.674,39.687,35.936,97.83l-.3-.408,80.035-58.358Z" transform="translate(-35.133 30.769)" fill="#fff"/>
      <path id="Path_2522" data-name="Path 2522" d="M115.543,40.035,36.1,97.962l-.295-.406,79.738-58.144Z" transform="translate(-35.003 31.044)" fill="#fff"/>
      <path id="Path_2523" data-name="Path 2523" d="M115.413,40.383,36.267,98.094l-.3-.406,79.443-57.927Z" transform="translate(-34.873 31.318)" fill="#fff"/>
      <path id="Path_2524" data-name="Path 2524" d="M115.283,40.731,36.433,98.226l-.3-.406,79.147-57.711Z" transform="translate(-34.742 31.592)" fill="#fff"/>
      <path id="Path_2525" data-name="Path 2525" d="M115.152,41.079,36.6,98.358l-.3-.406,78.85-57.495Z" transform="translate(-34.611 31.866)" fill="#fff"/>
      <path id="Path_2526" data-name="Path 2526" d="M115.021,41.428,36.763,98.49l-.295-.406,78.553-57.278Z" transform="translate(-34.48 32.141)" fill="#fff"/>
      <path id="Path_2527" data-name="Path 2527" d="M114.891,41.776,36.93,98.623l-.3-.408,78.258-57.062Z" transform="translate(-34.35 32.415)" fill="#fff"/>
      <path id="Path_2528" data-name="Path 2528" d="M114.76,42.124,37.1,98.755l-.3-.408L114.76,41.5Z" transform="translate(-34.22 32.689)" fill="#fff"/>
      <path id="Path_2529" data-name="Path 2529" d="M114.63,42.472,37.262,98.887l-.3-.406L114.63,41.85Z" transform="translate(-34.089 32.963)" fill="#fff"/>
      <path id="Path_2530" data-name="Path 2530" d="M114.5,42.82l-77.073,56.2-.295-.406L114.5,42.2Z" transform="translate(-33.958 33.238)" fill="#fff"/>
      <path id="Path_2531" data-name="Path 2531" d="M114.369,43.168,37.593,99.151l-.3-.406,77.073-56.2Z" transform="translate(-33.828 33.512)" fill="#fff"/>
      <path id="Path_2532" data-name="Path 2532" d="M114.238,43.517,37.759,99.282l-.3-.406,76.776-55.982Z" transform="translate(-33.697 33.786)" fill="#fff"/>
      <path id="Path_2533" data-name="Path 2533" d="M114.107,43.865,37.925,99.414l-.3-.406,76.48-55.766Z" transform="translate(-33.567 34.06)" fill="#fff"/>
      <path id="Path_2534" data-name="Path 2534" d="M113.977,44.213,38.089,99.548l-.295-.408,76.183-55.55Z" transform="translate(-33.436 34.335)" fill="#fff"/>
      <path id="Path_2535" data-name="Path 2535" d="M113.847,44.561,38.256,99.68l-.3-.408,75.888-55.333Z" transform="translate(-33.306 34.609)" fill="#fff"/>
      <path id="Path_2536" data-name="Path 2536" d="M113.716,44.909l-75.294,54.9-.3-.406,75.591-55.119Z" transform="translate(-33.175 34.883)" fill="#fff"/>
      <path id="Path_2537" data-name="Path 2537" d="M113.585,45.257l-75,54.686-.3-.406,75.294-54.9Z" transform="translate(-33.044 35.157)" fill="#fff"/>
      <path id="Path_2538" data-name="Path 2538" d="M113.454,45.606l-74.7,54.47-.295-.406,75-54.686Z" transform="translate(-32.914 35.431)" fill="#fff"/>
      <path id="Path_2539" data-name="Path 2539" d="M113.324,45.954,38.919,100.207l-.3-.406,74.7-54.47Z" transform="translate(-32.784 35.706)" fill="#fff"/>
      <path id="Path_2540" data-name="Path 2540" d="M113.194,46.3,39.085,100.339l-.3-.406L113.194,45.68Z" transform="translate(-32.653 35.98)" fill="#fff"/>
      <path id="Path_2541" data-name="Path 2541" d="M113.063,46.65,39.251,100.473l-.3-.408,74.109-54.037Z" transform="translate(-32.522 36.254)" fill="#fff"/>
      <path id="Path_2542" data-name="Path 2542" d="M112.932,47,39.415,100.6l-.295-.408,73.812-53.821Z" transform="translate(-32.391 36.528)" fill="#fff"/>
      <path id="Path_2543" data-name="Path 2543" d="M112.8,47.346l-73.221,53.39-.3-.406L112.8,46.724Z" transform="translate(-32.261 36.803)" fill="#fff"/>
      <path id="Path_2544" data-name="Path 2544" d="M112.671,47.695,39.748,100.868l-.3-.406,73.221-53.39Z" transform="translate(-32.131 37.077)" fill="#fff"/>
      <path id="Path_2545" data-name="Path 2545" d="M112.541,48.043,39.914,101l-.3-.406,72.924-53.174Z" transform="translate(-32 37.351)" fill="#fff"/>
      <path id="Path_2546" data-name="Path 2546" d="M112.41,48.391,40.078,101.132l-.295-.406L112.41,47.769Z" transform="translate(-31.869 37.625)" fill="#fff"/>
      <path id="Path_2547" data-name="Path 2547" d="M112.28,48.739,40.245,101.264l-.3-.406L112.28,48.117Z" transform="translate(-31.739 37.9)" fill="#fff"/>
      <path id="Path_2548" data-name="Path 2548" d="M112.149,49.087,40.411,101.4l-.3-.408,72.035-52.525Z" transform="translate(-31.608 38.174)" fill="#fff"/>
      <path id="Path_2549" data-name="Path 2549" d="M112.018,49.435,40.577,101.529l-.3-.408,71.739-52.309Z" transform="translate(-31.478 38.448)" fill="#fff"/>
      <path id="Path_2550" data-name="Path 2550" d="M111.888,49.784,40.741,101.661l-.295-.406,71.442-52.094Z" transform="translate(-31.347 38.722)" fill="#fff"/>
      <path id="Path_2551" data-name="Path 2551" d="M111.758,50.132l-70.85,51.661-.3-.406L111.758,49.51Z" transform="translate(-31.217 38.996)" fill="#fff"/>
      <path id="Path_2552" data-name="Path 2552" d="M111.627,50.48,41.074,101.925l-.3-.406,70.85-51.661Z" transform="translate(-31.086 39.271)" fill="#fff"/>
      <path id="Path_2553" data-name="Path 2553" d="M111.5,50.828,41.24,102.057l-.3-.406L111.5,50.206Z" transform="translate(-30.956 39.545)" fill="#fff"/>
      <path id="Path_2554" data-name="Path 2554" d="M111.365,51.176,41.4,102.189l-.295-.406,70.257-51.229Z" transform="translate(-30.825 39.819)" fill="#fff"/>
      <path id="Path_2555" data-name="Path 2555" d="M111.236,51.524l-69.665,50.8-.3-.408L111.236,50.9Z" transform="translate(-30.695 40.093)" fill="#fff"/>
      <path id="Path_2556" data-name="Path 2556" d="M111.1,51.873,41.737,102.454l-.3-.408L111.1,51.25Z" transform="translate(-30.564 40.368)" fill="#fff"/>
      <path id="Path_2557" data-name="Path 2557" d="M110.974,52.221,41.9,102.586l-.295-.406L110.974,51.6Z" transform="translate(-30.433 40.642)" fill="#fff"/>
      <path id="Path_2558" data-name="Path 2558" d="M110.844,52.569,42.068,102.718l-.3-.406,69.073-50.365Z" transform="translate(-30.303 40.916)" fill="#fff"/>
      <path id="Path_2559" data-name="Path 2559" d="M110.713,52.917,42.79,102.444h-.853l68.777-50.149Z" transform="translate(-30.173 41.19)" fill="#fff"/>
      <path id="Path_2560" data-name="Path 2560" d="M110.338,53.265l-67.071,48.9h-.853l67.924-49.527Z" transform="translate(-29.797 41.465)" fill="#fff"/>
      <path id="Path_2561" data-name="Path 2561" d="M109.962,53.613,43.745,101.9h-.855l67.071-48.9Z" transform="translate(-29.421 41.739)" fill="#fff"/>
      <path id="Path_2562" data-name="Path 2562" d="M109.585,53.962,44.222,101.622h-.853l66.217-48.283Z" transform="translate(-29.045 42.013)" fill="#fff"/>
      <path id="Path_2563" data-name="Path 2563" d="M109.21,54.31,44.7,101.348h-.854L109.21,53.688Z" transform="translate(-28.669 42.287)" fill="#fff"/>
      <path id="Path_2564" data-name="Path 2564" d="M108.833,54.658,45.177,101.074h-.853l64.509-47.039Z" transform="translate(-28.292 42.562)" fill="#fff"/>
      <path id="Path_2565" data-name="Path 2565" d="M108.457,55.006,45.655,100.8H44.8l63.657-46.415Z" transform="translate(-27.917 42.836)" fill="#fff"/>
      <path id="Path_2566" data-name="Path 2566" d="M108.081,55.354l-61.949,45.17h-.853l62.8-45.793Z" transform="translate(-27.54 43.11)" fill="#fff"/>
      <path id="Path_2567" data-name="Path 2567" d="M107.705,55.7,46.61,100.251h-.855L107.705,55.08Z" transform="translate(-27.165 43.384)" fill="#fff"/>
      <path id="Path_2568" data-name="Path 2568" d="M107.329,56.051,47.087,99.977h-.853l61.095-44.548Z" transform="translate(-26.788 43.659)" fill="#fff"/>
      <path id="Path_2569" data-name="Path 2569" d="M106.953,56.4,47.565,99.7h-.855l60.242-43.926Z" transform="translate(-26.412 43.933)" fill="#fff"/>
      <path id="Path_2570" data-name="Path 2570" d="M106.577,56.747,48.042,99.429h-.853l59.388-43.3Z" transform="translate(-26.036 44.207)" fill="#fff"/>
      <path id="Path_2571" data-name="Path 2571" d="M106.2,57.095,48.52,99.153h-.855L106.2,56.473Z" transform="translate(-25.66 44.481)" fill="#fff"/>
      <path id="Path_2572" data-name="Path 2572" d="M105.824,57.443,49,98.879h-.853l57.681-42.058Z" transform="translate(-25.284 44.755)" fill="#fff"/>
      <path id="Path_2573" data-name="Path 2573" d="M105.449,57.791,49.475,98.605h-.854l56.828-41.436Z" transform="translate(-24.908 45.03)" fill="#fff"/>
      <path id="Path_2574" data-name="Path 2574" d="M105.072,58.139,49.952,98.331H49.1l55.973-40.814Z" transform="translate(-24.531 45.304)" fill="#fff"/>
      <path id="Path_2575" data-name="Path 2575" d="M104.7,58.488,50.43,98.057h-.854L104.7,57.866Z" transform="translate(-24.156 45.578)" fill="#fff"/>
      <path id="Path_2576" data-name="Path 2576" d="M104.32,58.836,50.907,97.783h-.853l54.266-39.57Z" transform="translate(-23.779 45.852)" fill="#fff"/>
      <path id="Path_2577" data-name="Path 2577" d="M103.944,59.184,51.385,97.508h-.854l53.413-38.946Z" transform="translate(-23.403 46.127)" fill="#fff"/>
      <path id="Path_2578" data-name="Path 2578" d="M103.568,59.532l-51.706,37.7h-.853L103.568,58.91Z" transform="translate(-23.027 46.401)" fill="#fff"/>
      <path id="Path_2579" data-name="Path 2579" d="M103.192,59.88,52.34,96.96h-.855l51.706-37.7Z" transform="translate(-22.651 46.675)" fill="#fff"/>
      <path id="Path_2580" data-name="Path 2580" d="M102.815,60.228l-50,36.457h-.853l50.852-37.08Z" transform="translate(-22.275 46.949)" fill="#fff"/>
      <path id="Path_2581" data-name="Path 2581" d="M102.44,60.577,53.3,96.412h-.855l50-36.457Z" transform="translate(-21.899 47.224)" fill="#fff"/>
      <path id="Path_2582" data-name="Path 2582" d="M102.063,60.925,53.772,96.138h-.853L102.063,60.3Z" transform="translate(-21.523 47.498)" fill="#fff"/>
      <path id="Path_2583" data-name="Path 2583" d="M101.688,61.273,54.25,95.862H53.4l48.292-35.211Z" transform="translate(-21.147 47.772)" fill="#fff"/>
      <path id="Path_2584" data-name="Path 2584" d="M101.311,61.621,54.727,95.588h-.853L101.311,61Z" transform="translate(-20.77 48.046)" fill="#fff"/>
      <path id="Path_2585" data-name="Path 2585" d="M100.935,61.969,55.205,95.314h-.854l46.585-33.967Z" transform="translate(-20.395 48.32)" fill="#fff"/>
      <path id="Path_2586" data-name="Path 2586" d="M100.559,62.317,55.682,95.04h-.853L100.559,61.7Z" transform="translate(-20.018 48.595)" fill="#fff"/>
      <path id="Path_2587" data-name="Path 2587" d="M100.183,62.666,56.16,94.767h-.855l44.877-32.723Z" transform="translate(-19.642 48.869)" fill="#fff"/>
      <path id="Path_2588" data-name="Path 2588" d="M99.807,63.014,56.637,94.493h-.853l44.023-32.1Z" transform="translate(-19.266 49.143)" fill="#fff"/>
      <path id="Path_2589" data-name="Path 2589" d="M99.431,63.362,57.114,94.217h-.853L99.431,62.74Z" transform="translate(-18.89 49.417)" fill="#fff"/>
      <path id="Path_2590" data-name="Path 2590" d="M99.055,63.71,57.592,93.943h-.855L99.055,63.088Z" transform="translate(-18.514 49.692)" fill="#fff"/>
      <path id="Path_2591" data-name="Path 2591" d="M98.679,64.058,58.069,93.669h-.853L98.679,63.436Z" transform="translate(-18.138 49.966)" fill="#fff"/>
      <path id="Path_2592" data-name="Path 2592" d="M98.3,64.406,58.547,93.4h-.855L98.3,63.784Z" transform="translate(-17.762 50.24)" fill="#fff"/>
      <path id="Path_2593" data-name="Path 2593" d="M97.926,64.755l-38.9,28.367h-.853L97.926,64.133Z" transform="translate(-17.386 50.514)" fill="#fff"/>
      <path id="Path_2594" data-name="Path 2594" d="M97.551,65.1,59.5,92.847h-.855l38.9-28.367Z" transform="translate(-17.01 50.789)" fill="#fff"/>
      <path id="Path_2595" data-name="Path 2595" d="M97.174,65.451l-37.2,27.121h-.853L97.174,64.829Z" transform="translate(-16.634 51.063)" fill="#fff"/>
      <path id="Path_2596" data-name="Path 2596" d="M96.8,65.8,60.457,92.3H59.6L96.8,65.177Z" transform="translate(-16.258 51.337)" fill="#fff"/>
      <path id="Path_2597" data-name="Path 2597" d="M96.422,66.147,60.934,92.024h-.853l36.341-26.5Z" transform="translate(-15.881 51.611)" fill="#fff"/>
      <path id="Path_2598" data-name="Path 2598" d="M96.046,66.5,61.412,91.75h-.854L96.046,65.873Z" transform="translate(-15.506 51.886)" fill="#fff"/>
      <path id="Path_2599" data-name="Path 2599" d="M95.67,66.844,61.889,91.476h-.853L95.67,66.221Z" transform="translate(-15.129 52.16)" fill="#fff"/>
      <path id="Path_2600" data-name="Path 2600" d="M95.294,67.192,62.367,91.2h-.855L95.294,66.57Z" transform="translate(-14.753 52.434)" fill="#fff"/>
      <path id="Path_2601" data-name="Path 2601" d="M94.918,67.54,62.844,90.928h-.853l32.927-24.01Z" transform="translate(-14.377 52.708)" fill="#fff"/>
      <path id="Path_2602" data-name="Path 2602" d="M94.542,67.888,63.322,90.652h-.855L94.542,67.266Z" transform="translate(-14.001 52.983)" fill="#fff"/>
      <path id="Path_2603" data-name="Path 2603" d="M94.165,68.236,63.8,90.378h-.853l31.22-22.764Z" transform="translate(-13.625 53.257)" fill="#fff"/>
      <path id="Path_2604" data-name="Path 2604" d="M93.79,68.584,64.277,90.1h-.854L93.79,67.962Z" transform="translate(-13.249 53.531)" fill="#fff"/>
      <path id="Path_2605" data-name="Path 2605" d="M63.9,89.83,93.413,68.31V89.83Z" transform="translate(-12.873 53.805)" fill="#fff"/>
    </g>
  </g>
  <g id="Group_1317" data-name="Group 1317">
    <g id="Group_1316" data-name="Group 1316" clip-path="url(#clip-path)">
      <path id="Path_2607" data-name="Path 2607" d="M78.538,60.73a3.856,3.856,0,1,0-3.856,3.856,3.857,3.857,0,0,0,3.856-3.856" transform="translate(55.787 44.797)" fill="#fff"/>
    </g>
  </g>
  <g id="Group_1319" data-name="Group 1319" transform="translate(126.613 101.671)">
    <g id="Group_1318" data-name="Group 1318" clip-path="url(#clip-path-6)">
      <path id="Path_2608" data-name="Path 2608" d="M71.527,56.874l-.7.511v-.511Z" transform="translate(-70.826 -56.874)" fill="#fff"/>
      <path id="Path_2609" data-name="Path 2609" d="M72.381,56.874l-1.555,1.133v-.622l.7-.511Z" transform="translate(-70.826 -56.874)" fill="#fff"/>
      <path id="Path_2610" data-name="Path 2610" d="M73.235,56.874l-2.408,1.755v-.622l1.555-1.133Z" transform="translate(-70.826 -56.874)" fill="#fff"/>
      <path id="Path_2611" data-name="Path 2611" d="M74.088,56.874l-3.262,2.378v-.622l2.41-1.755Z" transform="translate(-70.826 -56.874)" fill="#fff"/>
      <path id="Path_2612" data-name="Path 2612" d="M74.942,56.874l-4.115,3v-.624l3.262-2.378Z" transform="translate(-70.826 -56.874)" fill="#fff"/>
      <path id="Path_2613" data-name="Path 2613" d="M75.795,56.874,70.827,60.5v-.622l4.115-3Z" transform="translate(-70.825 -56.874)" fill="#fff"/>
      <path id="Path_2614" data-name="Path 2614" d="M76.649,56.874,70.827,61.12V60.5l4.97-3.624Z" transform="translate(-70.826 -56.874)" fill="#fff"/>
      <path id="Path_2615" data-name="Path 2615" d="M77.5,56.874l-6.675,4.868V61.12l5.822-4.246Z" transform="translate(-70.825 -56.874)" fill="#fff"/>
      <path id="Path_2616" data-name="Path 2616" d="M78.356,56.874l-7.53,5.49v-.622L77.5,56.874Z" transform="translate(-70.826 -56.874)" fill="#fff"/>
      <path id="Path_2617" data-name="Path 2617" d="M78.538,57.364l-7.712,5.622v-.622l7.53-5.49h.182Z" transform="translate(-70.826 -56.874)" fill="#fff"/>
      <path id="Path_2618" data-name="Path 2618" d="M78.538,57.77l-7.712,5.622V62.77l7.712-5.622Z" transform="translate(-70.826 -56.658)" fill="#fff"/>
      <path id="Path_2619" data-name="Path 2619" d="M78.538,58.118,70.826,63.74v-.622L78.538,57.5Z" transform="translate(-70.826 -56.384)" fill="#fff"/>
      <path id="Path_2620" data-name="Path 2620" d="M78.538,58.466,71.195,63.82h-.368v-.354l7.712-5.622Z" transform="translate(-70.826 -56.11)" fill="#fff"/>
      <path id="Path_2621" data-name="Path 2621" d="M78.376,58.815l-6.491,4.732h-.853l7.344-5.354Z" transform="translate(-70.664 -55.835)" fill="#fff"/>
      <path id="Path_2622" data-name="Path 2622" d="M78,59.163l-5.636,4.11h-.854L78,58.541Z" transform="translate(-70.288 -55.561)" fill="#fff"/>
      <path id="Path_2623" data-name="Path 2623" d="M77.624,59.511,72.84,63h-.853l5.636-4.11Z" transform="translate(-69.911 -55.287)" fill="#fff"/>
      <path id="Path_2624" data-name="Path 2624" d="M77.248,59.859l-3.929,2.866h-.854l4.784-3.488Z" transform="translate(-69.536 -55.013)" fill="#fff"/>
      <path id="Path_2625" data-name="Path 2625" d="M76.872,60.207,73.8,62.451h-.853l3.929-2.866Z" transform="translate(-69.159 -54.739)" fill="#fff"/>
      <path id="Path_2626" data-name="Path 2626" d="M76.5,60.555l-2.222,1.62h-.854L76.5,59.933Z" transform="translate(-68.783 -54.464)" fill="#fff"/>
      <path id="Path_2627" data-name="Path 2627" d="M76.119,60.9l-1.369,1H73.9l2.222-1.62Z" transform="translate(-68.407 -54.19)" fill="#fff"/>
      <path id="Path_2628" data-name="Path 2628" d="M75.744,61.252l-.515.375h-.854l1.369-1Z" transform="translate(-68.031 -53.916)" fill="#fff"/>
      <path id="Path_2629" data-name="Path 2629" d="M74.852,61.353l.515-.375v.375Z" transform="translate(-67.655 -53.642)" fill="#fff"/>
    </g>
  </g>
  <g id="Group_1321" data-name="Group 1321">
    <g id="Group_1320" data-name="Group 1320" clip-path="url(#clip-path)">
      <path id="Path_2631" data-name="Path 2631" d="M116.4,11.207l-3.093.8L113.293,12,53.7,27.283v58.11a4.361,4.361,0,0,0,5.4,4.233l33.081-8.091A5.777,5.777,0,0,0,96.357,76V65.244l-28.5,7.379V43.229a2.423,2.423,0,0,1,1.732-2.4l36.021-9.3a2.174,2.174,0,0,1,1.886.408,2.649,2.649,0,0,1,.994,2.09V99.959a2.419,2.419,0,0,1-1.734,2.4l-36.019,9.3a2.168,2.168,0,0,1-1.882-.406,2.648,2.648,0,0,1-1-2.092v-3.906a2.851,2.851,0,0,0-3.568-2.76L53.7,105.238v22.135a4.361,4.361,0,0,0,5.443,4.222l58.993-15.134a4.357,4.357,0,0,0,3.275-4.222V15.1a4.026,4.026,0,0,0-5.009-3.9" transform="translate(42.296 8.727)" fill="#fff"/>
    </g>
  </g>
  <g id="Group_1323" data-name="Group 1323" transform="translate(95.995 19.807)">
    <g id="Group_1322" data-name="Group 1322" clip-path="url(#clip-path-8)">
      <path id="Path_2632" data-name="Path 2632" d="M54.408,10.787l-.71.517v-.517Z" transform="translate(-53.7 -11.31)" fill="#fff"/>
      <path id="Path_2633" data-name="Path 2633" d="M55.218,10.787,53.7,11.9V11.3l.708-.517Z" transform="translate(-53.699 -11.31)" fill="#fff"/>
      <path id="Path_2634" data-name="Path 2634" d="M56.03,10.787l-2.331,1.7V11.9l1.52-1.108Z" transform="translate(-53.699 -11.31)" fill="#fff"/>
      <path id="Path_2635" data-name="Path 2635" d="M56.841,10.787,53.7,13.079v-.592l2.331-1.7Z" transform="translate(-53.7 -11.31)" fill="#fff"/>
      <path id="Path_2636" data-name="Path 2636" d="M57.652,10.787,53.7,13.671v-.592l3.143-2.292Z" transform="translate(-53.7 -11.31)" fill="#fff"/>
      <path id="Path_2637" data-name="Path 2637" d="M58.463,10.787,53.7,14.261v-.59l3.953-2.883Z" transform="translate(-53.699 -11.31)" fill="#fff"/>
      <path id="Path_2638" data-name="Path 2638" d="M59.274,10.787,53.7,14.853v-.592l4.764-3.473Z" transform="translate(-53.699 -11.31)" fill="#fff"/>
      <path id="Path_2639" data-name="Path 2639" d="M60.086,10.787,53.7,15.444v-.592l5.576-4.065Z" transform="translate(-53.699 -11.31)" fill="#fff"/>
      <path id="Path_2640" data-name="Path 2640" d="M60.9,10.787l-7.2,5.249v-.592l6.387-4.657Z" transform="translate(-53.7 -11.31)" fill="#fff"/>
      <path id="Path_2641" data-name="Path 2641" d="M61.708,10.787,53.7,16.628v-.592l7.2-5.249Z" transform="translate(-53.699 -11.31)" fill="#fff"/>
      <path id="Path_2642" data-name="Path 2642" d="M62.519,10.787,53.7,17.219v-.592l8.009-5.84Z" transform="translate(-53.699 -11.31)" fill="#fff"/>
      <path id="Path_2643" data-name="Path 2643" d="M63.33,10.787,53.7,17.811v-.592l8.82-6.432Z" transform="translate(-53.699 -11.31)" fill="#fff"/>
      <path id="Path_2644" data-name="Path 2644" d="M64.142,10.787,53.7,18.4v-.592l9.632-7.024Z" transform="translate(-53.7 -11.31)" fill="#fff"/>
      <path id="Path_2645" data-name="Path 2645" d="M64.953,10.787,53.7,18.993V18.4l10.444-7.615Z" transform="translate(-53.7 -11.31)" fill="#fff"/>
      <path id="Path_2646" data-name="Path 2646" d="M65.764,10.787,53.7,19.584v-.592l11.253-8.205Z" transform="translate(-53.699 -11.31)" fill="#fff"/>
      <path id="Path_2647" data-name="Path 2647" d="M66.575,10.787,53.7,20.176v-.592l12.065-8.8Z" transform="translate(-53.699 -11.31)" fill="#fff"/>
      <path id="Path_2648" data-name="Path 2648" d="M67.386,10.787,53.7,20.768v-.592l12.877-9.389Z" transform="translate(-53.7 -11.31)" fill="#fff"/>
      <path id="Path_2649" data-name="Path 2649" d="M68.2,10.787,53.7,21.36v-.592l13.688-9.98Z" transform="translate(-53.7 -11.31)" fill="#fff"/>
      <path id="Path_2650" data-name="Path 2650" d="M69.008,10.787,53.7,21.951V21.36L68.2,10.787Z" transform="translate(-53.699 -11.31)" fill="#fff"/>
      <path id="Path_2651" data-name="Path 2651" d="M69.82,10.787,53.7,22.543v-.592L69.008,10.787Z" transform="translate(-53.699 -11.31)" fill="#fff"/>
      <path id="Path_2652" data-name="Path 2652" d="M70.631,10.787,53.7,23.135v-.592L69.819,10.787Z" transform="translate(-53.7 -11.31)" fill="#fff"/>
      <path id="Path_2653" data-name="Path 2653" d="M71.442,10.787,53.7,23.725v-.59L70.631,10.787Z" transform="translate(-53.7 -11.31)" fill="#fff"/>
      <path id="Path_2654" data-name="Path 2654" d="M72.253,10.787,53.7,24.316v-.592L71.441,10.787Z" transform="translate(-53.699 -11.31)" fill="#fff"/>
      <path id="Path_2655" data-name="Path 2655" d="M73.064,10.787,53.7,24.908v-.592L72.253,10.787Z" transform="translate(-53.699 -11.31)" fill="#fff"/>
      <path id="Path_2656" data-name="Path 2656" d="M73.876,10.787,53.7,25.5v-.592L73.064,10.787Z" transform="translate(-53.699 -11.31)" fill="#fff"/>
      <path id="Path_2657" data-name="Path 2657" d="M74.687,10.787,53.7,26.092V25.5L73.875,10.787Z" transform="translate(-53.7 -11.31)" fill="#fff"/>
      <path id="Path_2658" data-name="Path 2658" d="M75.5,10.787l-21.8,15.9v-.592l20.989-15.3Z" transform="translate(-53.7 -11.31)" fill="#fff"/>
      <path id="Path_2659" data-name="Path 2659" d="M76.309,10.787,53.7,27.275v-.592l21.8-15.9Z" transform="translate(-53.699 -11.31)" fill="#fff"/>
      <path id="Path_2660" data-name="Path 2660" d="M77.12,10.787,53.7,27.867v-.592l22.61-16.488Z" transform="translate(-53.699 -11.31)" fill="#fff"/>
      <path id="Path_2661" data-name="Path 2661" d="M77.932,10.787,53.7,28.457v-.59L77.12,10.787Z" transform="translate(-53.7 -11.31)" fill="#fff"/>
      <path id="Path_2662" data-name="Path 2662" d="M78.743,10.787,53.7,29.048v-.592L77.931,10.787Z" transform="translate(-53.7 -11.31)" fill="#fff"/>
      <path id="Path_2663" data-name="Path 2663" d="M79.554,10.787,53.7,29.64v-.592L78.742,10.787Z" transform="translate(-53.699 -11.31)" fill="#fff"/>
      <path id="Path_2664" data-name="Path 2664" d="M80.365,10.787,53.7,30.232V29.64L79.553,10.787Z" transform="translate(-53.699 -11.31)" fill="#fff"/>
      <path id="Path_2665" data-name="Path 2665" d="M81.176,10.787,53.7,30.823v-.592L80.365,10.787Z" transform="translate(-53.7 -11.31)" fill="#fff"/>
      <path id="Path_2666" data-name="Path 2666" d="M81.988,10.787,53.7,31.415v-.592L81.176,10.787Z" transform="translate(-53.7 -11.31)" fill="#fff"/>
      <path id="Path_2667" data-name="Path 2667" d="M82.8,10.787,53.7,32.007v-.592L81.987,10.787Z" transform="translate(-53.699 -11.31)" fill="#fff"/>
      <path id="Path_2668" data-name="Path 2668" d="M83.61,10.787,53.7,32.6v-.592L82.8,10.787Z" transform="translate(-53.699 -11.31)" fill="#fff"/>
      <path id="Path_2669" data-name="Path 2669" d="M84.421,10.787,53.7,33.189V32.6L83.609,10.787Z" transform="translate(-53.699 -11.31)" fill="#fff"/>
      <path id="Path_2670" data-name="Path 2670" d="M85.232,10.787,53.7,33.78v-.592l30.723-22.4Z" transform="translate(-53.7 -11.31)" fill="#fff"/>
      <path id="Path_2671" data-name="Path 2671" d="M86.043,10.787,53.7,34.372V33.78L85.231,10.787Z" transform="translate(-53.699 -11.31)" fill="#fff"/>
      <path id="Path_2672" data-name="Path 2672" d="M86.854,10.787,53.7,34.964v-.592L86.043,10.787Z" transform="translate(-53.699 -11.31)" fill="#fff"/>
      <path id="Path_2673" data-name="Path 2673" d="M87.666,10.787,53.7,35.555v-.592L86.854,10.787Z" transform="translate(-53.699 -11.31)" fill="#fff"/>
      <path id="Path_2674" data-name="Path 2674" d="M88.477,10.787,53.7,36.147v-.592L87.665,10.787Z" transform="translate(-53.7 -11.31)" fill="#fff"/>
      <path id="Path_2675" data-name="Path 2675" d="M89.288,10.787,53.7,36.739v-.592l34.779-25.36Z" transform="translate(-53.7 -11.31)" fill="#fff"/>
      <path id="Path_2676" data-name="Path 2676" d="M90.1,10.787,53.7,37.331v-.592L89.287,10.787Z" transform="translate(-53.699 -11.31)" fill="#fff"/>
      <path id="Path_2677" data-name="Path 2677" d="M90.91,10.787,53.7,37.92v-.59L90.1,10.787Z" transform="translate(-53.699 -11.31)" fill="#fff"/>
      <path id="Path_2678" data-name="Path 2678" d="M91.722,10.787,53.7,38.512V37.92L90.91,10.787Z" transform="translate(-53.7 -11.31)" fill="#fff"/>
      <path id="Path_2679" data-name="Path 2679" d="M92.533,10.787,53.7,39.1v-.592L91.722,10.787Z" transform="translate(-53.7 -11.31)" fill="#fff"/>
      <path id="Path_2680" data-name="Path 2680" d="M93.344,10.787,53.7,39.7V39.1L92.532,10.787Z" transform="translate(-53.699 -11.31)" fill="#fff"/>
      <path id="Path_2681" data-name="Path 2681" d="M94.155,10.787,53.7,40.287V39.7L93.343,10.787Z" transform="translate(-53.699 -11.31)" fill="#fff"/>
      <path id="Path_2682" data-name="Path 2682" d="M94.966,10.787,53.7,40.879v-.592l40.456-29.5Z" transform="translate(-53.699 -11.31)" fill="#fff"/>
      <path id="Path_2683" data-name="Path 2683" d="M95.778,10.787,53.7,41.471v-.592L94.966,10.787Z" transform="translate(-53.7 -11.31)" fill="#fff"/>
      <path id="Path_2684" data-name="Path 2684" d="M96.588,10.787,53.7,42.062v-.592L95.777,10.787Z" transform="translate(-53.699 -11.31)" fill="#fff"/>
      <path id="Path_2685" data-name="Path 2685" d="M97.4,10.787,53.7,42.652v-.59L96.588,10.787Z" transform="translate(-53.699 -11.31)" fill="#fff"/>
      <path id="Path_2686" data-name="Path 2686" d="M98.211,10.787,53.7,43.244v-.592L97.4,10.787Z" transform="translate(-53.699 -11.31)" fill="#fff"/>
      <path id="Path_2687" data-name="Path 2687" d="M99.022,10.787,53.7,43.836v-.592L98.211,10.787Z" transform="translate(-53.7 -11.31)" fill="#fff"/>
      <path id="Path_2688" data-name="Path 2688" d="M99.834,10.787,53.7,44.428v-.592L99.022,10.787Z" transform="translate(-53.7 -11.31)" fill="#fff"/>
      <path id="Path_2689" data-name="Path 2689" d="M100.644,10.787,53.7,45.019v-.592l46.134-33.64Z" transform="translate(-53.699 -11.31)" fill="#fff"/>
      <path id="Path_2690" data-name="Path 2690" d="M101.456,10.787,53.7,45.611v-.592l46.946-34.232Z" transform="translate(-53.699 -11.31)" fill="#fff"/>
      <path id="Path_2691" data-name="Path 2691" d="M102.267,10.787,53.7,46.2v-.592l47.757-34.824Z" transform="translate(-53.7 -11.31)" fill="#fff"/>
      <path id="Path_2692" data-name="Path 2692" d="M103.079,10.787,53.7,46.793V46.2l48.569-35.415Z" transform="translate(-53.7 -11.31)" fill="#fff"/>
      <path id="Path_2693" data-name="Path 2693" d="M103.889,10.787,53.7,47.384v-.592l49.379-36.005Z" transform="translate(-53.699 -11.31)" fill="#fff"/>
      <path id="Path_2694" data-name="Path 2694" d="M104.7,10.787l-51,37.189v-.592l50.19-36.6Z" transform="translate(-53.699 -11.31)" fill="#fff"/>
      <path id="Path_2695" data-name="Path 2695" d="M105.512,10.787,53.7,48.568v-.592l51-37.189Z" transform="translate(-53.699 -11.31)" fill="#fff"/>
      <path id="Path_2696" data-name="Path 2696" d="M106.323,10.787,53.7,49.159v-.592l51.813-37.78Z" transform="translate(-53.7 -11.31)" fill="#fff"/>
      <path id="Path_2697" data-name="Path 2697" d="M107.134,10.787,53.7,49.751v-.592l52.623-38.372Z" transform="translate(-53.699 -11.31)" fill="#fff"/>
      <path id="Path_2698" data-name="Path 2698" d="M107.945,10.787,53.7,50.343v-.592l53.435-38.964Z" transform="translate(-53.699 -11.31)" fill="#fff"/>
      <path id="Path_2699" data-name="Path 2699" d="M108.757,10.787,53.7,50.935v-.592l54.246-39.555Z" transform="translate(-53.699 -11.31)" fill="#fff"/>
      <path id="Path_2700" data-name="Path 2700" d="M109.568,10.787,53.7,51.525v-.59l55.058-40.147Z" transform="translate(-53.7 -11.31)" fill="#fff"/>
      <path id="Path_2701" data-name="Path 2701" d="M110.379,10.787,53.7,52.116v-.592l55.87-40.737Z" transform="translate(-53.7 -11.31)" fill="#fff"/>
      <path id="Path_2702" data-name="Path 2702" d="M111.19,10.787,53.7,52.708v-.592l56.679-41.329Z" transform="translate(-53.699 -11.31)" fill="#fff"/>
      <path id="Path_2703" data-name="Path 2703" d="M112,10.787,53.7,53.3v-.592L111.19,10.787Z" transform="translate(-53.699 -11.31)" fill="#fff"/>
      <path id="Path_2704" data-name="Path 2704" d="M112.813,10.787,53.7,53.891V53.3L112,10.787Z" transform="translate(-53.7 -11.31)" fill="#fff"/>
      <path id="Path_2705" data-name="Path 2705" d="M113.624,10.787,53.7,54.483v-.592l59.114-43.1Z" transform="translate(-53.7 -11.31)" fill="#fff"/>
      <path id="Path_2706" data-name="Path 2706" d="M114.434,10.787,53.7,55.075v-.592l59.924-43.7Z" transform="translate(-53.699 -11.31)" fill="#fff"/>
      <path id="Path_2707" data-name="Path 2707" d="M115.246,10.787,53.7,55.667v-.592l60.736-44.287Z" transform="translate(-53.699 -11.31)" fill="#fff"/>
      <path id="Path_2708" data-name="Path 2708" d="M116.057,10.787,53.7,56.256v-.59l61.547-44.879Z" transform="translate(-53.699 -11.31)" fill="#fff"/>
      <path id="Path_2709" data-name="Path 2709" d="M116.869,10.787,53.7,56.848v-.592l62.359-45.469Z" transform="translate(-53.7 -11.31)" fill="#fff"/>
      <path id="Path_2710" data-name="Path 2710" d="M117.679,10.787,53.7,57.44v-.592l63.169-46.061Z" transform="translate(-53.699 -11.31)" fill="#fff"/>
      <path id="Path_2711" data-name="Path 2711" d="M118.491,10.787,53.7,58.032V57.44l63.98-46.652Z" transform="translate(-53.699 -11.31)" fill="#fff"/>
      <path id="Path_2712" data-name="Path 2712" d="M119.3,10.787,53.7,58.623v-.592L118.49,10.787Z" transform="translate(-53.699 -11.31)" fill="#fff"/>
      <path id="Path_2713" data-name="Path 2713" d="M120.113,10.787,53.7,59.215v-.592l65.6-47.836Z" transform="translate(-53.7 -11.31)" fill="#fff"/>
      <path id="Path_2714" data-name="Path 2714" d="M120.925,10.787,53.7,59.807v-.592l66.415-48.428Z" transform="translate(-53.7 -11.31)" fill="#fff"/>
      <path id="Path_2715" data-name="Path 2715" d="M121.409,11.025,53.7,60.4v-.592l67.227-49.019h.484Z" transform="translate(-53.699 -11.31)" fill="#fff"/>
      <path id="Path_2716" data-name="Path 2716" d="M121.409,11.512,53.7,60.885v-.592L121.409,10.92Z" transform="translate(-53.699 -11.206)" fill="#fff"/>
      <path id="Path_2717" data-name="Path 2717" d="M121.409,11.843,53.7,61.216v-.592l67.711-49.373Z" transform="translate(-53.699 -10.945)" fill="#fff"/>
      <path id="Path_2718" data-name="Path 2718" d="M121.409,12.174,53.7,61.547v-.592l67.711-49.373Z" transform="translate(-53.699 -10.685)" fill="#fff"/>
      <path id="Path_2719" data-name="Path 2719" d="M121.409,12.5,53.7,61.878v-.592l67.711-49.373Z" transform="translate(-53.699 -10.424)" fill="#fff"/>
      <path id="Path_2720" data-name="Path 2720" d="M121.409,12.835,53.7,62.209v-.592l67.711-49.373Z" transform="translate(-53.699 -10.163)" fill="#fff"/>
      <path id="Path_2721" data-name="Path 2721" d="M121.409,13.166,53.7,62.54v-.592l67.711-49.373Z" transform="translate(-53.699 -9.903)" fill="#fff"/>
      <path id="Path_2722" data-name="Path 2722" d="M121.409,13.5,53.7,62.87v-.592l67.711-49.373Z" transform="translate(-53.699 -9.642)" fill="#fff"/>
      <path id="Path_2723" data-name="Path 2723" d="M121.409,13.828,53.7,63.2V62.61l67.711-49.373Z" transform="translate(-53.699 -9.382)" fill="#fff"/>
      <path id="Path_2724" data-name="Path 2724" d="M121.409,14.159,53.7,63.532V62.94l67.711-49.373Z" transform="translate(-53.699 -9.121)" fill="#fff"/>
      <path id="Path_2725" data-name="Path 2725" d="M121.409,14.49,53.7,63.863v-.592L121.409,13.9Z" transform="translate(-53.699 -8.86)" fill="#fff"/>
      <path id="Path_2726" data-name="Path 2726" d="M121.409,14.821,53.7,64.194V63.6l67.711-49.373Z" transform="translate(-53.699 -8.6)" fill="#fff"/>
      <path id="Path_2727" data-name="Path 2727" d="M121.409,15.152,53.7,64.525v-.592L121.409,14.56Z" transform="translate(-53.699 -8.339)" fill="#fff"/>
      <path id="Path_2728" data-name="Path 2728" d="M121.409,15.482,53.7,64.856v-.592l67.711-49.373Z" transform="translate(-53.699 -8.078)" fill="#fff"/>
      <path id="Path_2729" data-name="Path 2729" d="M121.409,15.844,53.7,65.217v-.624l67.711-49.372Z" transform="translate(-53.699 -7.818)" fill="#fff"/>
      <path id="Path_2730" data-name="Path 2730" d="M121.409,16.192,53.7,65.565v-.624L121.409,15.57Z" transform="translate(-53.699 -7.543)" fill="#fff"/>
      <path id="Path_2731" data-name="Path 2731" d="M121.409,16.54,53.7,65.914V65.29l67.711-49.372Z" transform="translate(-53.699 -7.269)" fill="#fff"/>
      <path id="Path_2732" data-name="Path 2732" d="M121.409,16.889,53.7,66.262v-.624l67.711-49.371Z" transform="translate(-53.699 -6.995)" fill="#fff"/>
      <path id="Path_2733" data-name="Path 2733" d="M121.409,17.237,53.7,66.61v-.624l67.711-49.372Z" transform="translate(-53.699 -6.721)" fill="#fff"/>
      <path id="Path_2734" data-name="Path 2734" d="M121.409,17.585,53.7,66.958v-.624l67.711-49.372Z" transform="translate(-53.699 -6.446)" fill="#fff"/>
      <path id="Path_2735" data-name="Path 2735" d="M121.409,17.933,53.7,67.306v-.624l67.711-49.371Z" transform="translate(-53.699 -6.172)" fill="#fff"/>
      <path id="Path_2736" data-name="Path 2736" d="M121.409,18.281,53.7,67.654v-.624l67.711-49.372Z" transform="translate(-53.699 -5.898)" fill="#fff"/>
      <path id="Path_2737" data-name="Path 2737" d="M121.409,18.629,53.7,68v-.624l67.711-49.371Z" transform="translate(-53.699 -5.624)" fill="#fff"/>
      <path id="Path_2738" data-name="Path 2738" d="M121.409,18.978,53.7,68.351v-.624l67.711-49.372Z" transform="translate(-53.699 -5.349)" fill="#fff"/>
      <path id="Path_2739" data-name="Path 2739" d="M121.409,19.326,53.7,68.7v-.624L121.409,18.7Z" transform="translate(-53.699 -5.075)" fill="#fff"/>
      <path id="Path_2740" data-name="Path 2740" d="M121.409,19.674,53.7,69.047v-.624l67.711-49.372Z" transform="translate(-53.699 -4.801)" fill="#fff"/>
      <path id="Path_2741" data-name="Path 2741" d="M121.409,20.022,53.7,69.4v-.624L121.409,19.4Z" transform="translate(-53.699 -4.527)" fill="#fff"/>
      <path id="Path_2742" data-name="Path 2742" d="M121.409,20.37,53.7,69.743V69.12l67.711-49.372Z" transform="translate(-53.699 -4.253)" fill="#fff"/>
      <path id="Path_2743" data-name="Path 2743" d="M121.409,20.718,53.7,70.092v-.624L121.409,20.1Z" transform="translate(-53.699 -3.978)" fill="#fff"/>
      <path id="Path_2744" data-name="Path 2744" d="M121.409,21.066,53.7,70.44v-.624l67.711-49.372Z" transform="translate(-53.699 -3.704)" fill="#fff"/>
      <path id="Path_2745" data-name="Path 2745" d="M121.409,21.415,53.7,70.788v-.624l67.711-49.372Z" transform="translate(-53.699 -3.43)" fill="#fff"/>
      <path id="Path_2746" data-name="Path 2746" d="M121.409,21.763,53.7,71.136v-.624l67.711-49.371Z" transform="translate(-53.699 -3.156)" fill="#fff"/>
      <path id="Path_2747" data-name="Path 2747" d="M121.409,22.111,53.7,71.484V70.86l67.711-49.371Z" transform="translate(-53.699 -2.881)" fill="#fff"/>
      <path id="Path_2748" data-name="Path 2748" d="M121.409,22.459,53.7,71.832v-.624l67.711-49.372Z" transform="translate(-53.699 -2.607)" fill="#fff"/>
      <path id="Path_2749" data-name="Path 2749" d="M121.409,22.807,53.7,72.181v-.624l67.711-49.372Z" transform="translate(-53.699 -2.333)" fill="#fff"/>
      <path id="Path_2750" data-name="Path 2750" d="M121.409,23.155,53.7,72.529V71.9l67.711-49.372Z" transform="translate(-53.699 -2.059)" fill="#fff"/>
      <path id="Path_2751" data-name="Path 2751" d="M121.409,23.5,53.7,72.877v-.624l67.711-49.372Z" transform="translate(-53.699 -1.784)" fill="#fff"/>
      <path id="Path_2752" data-name="Path 2752" d="M121.409,23.852,53.7,73.225V72.6L121.409,23.23Z" transform="translate(-53.699 -1.51)" fill="#fff"/>
      <path id="Path_2753" data-name="Path 2753" d="M121.409,24.2,53.7,73.573v-.624l67.711-49.371Z" transform="translate(-53.699 -1.236)" fill="#fff"/>
      <path id="Path_2754" data-name="Path 2754" d="M121.409,24.548,53.7,73.921V73.3l67.711-49.372Z" transform="translate(-53.699 -0.962)" fill="#fff"/>
      <path id="Path_2755" data-name="Path 2755" d="M121.409,24.9,53.7,74.27v-.624l67.711-49.371Z" transform="translate(-53.699 -0.687)" fill="#fff"/>
      <path id="Path_2756" data-name="Path 2756" d="M121.409,25.244,53.7,74.618v-.624l67.711-49.372Z" transform="translate(-53.699 -0.413)" fill="#fff"/>
      <path id="Path_2757" data-name="Path 2757" d="M121.409,25.593,53.7,74.966v-.624L121.409,24.97Z" transform="translate(-53.699 -0.139)" fill="#fff"/>
      <path id="Path_2758" data-name="Path 2758" d="M121.409,25.941,53.7,75.314V74.69l67.711-49.372Z" transform="translate(-53.699 0.135)" fill="#fff"/>
      <path id="Path_2759" data-name="Path 2759" d="M121.409,26.289,53.7,75.662v-.624l67.711-49.372Z" transform="translate(-53.699 0.409)" fill="#fff"/>
      <path id="Path_2760" data-name="Path 2760" d="M121.409,26.637,53.7,76.01v-.624l67.711-49.372Z" transform="translate(-53.699 0.684)" fill="#fff"/>
      <path id="Path_2761" data-name="Path 2761" d="M121.409,26.985,53.7,76.359v-.624l67.711-49.371Z" transform="translate(-53.699 0.958)" fill="#fff"/>
      <path id="Path_2762" data-name="Path 2762" d="M121.409,27.333,53.7,76.707v-.624l67.711-49.372Z" transform="translate(-53.699 1.232)" fill="#fff"/>
      <path id="Path_2763" data-name="Path 2763" d="M121.409,27.682,53.7,77.055v-.624L121.409,27.06Z" transform="translate(-53.699 1.506)" fill="#fff"/>
      <path id="Path_2764" data-name="Path 2764" d="M121.409,28.03,53.7,77.4v-.624l67.711-49.371Z" transform="translate(-53.699 1.781)" fill="#fff"/>
      <path id="Path_2765" data-name="Path 2765" d="M121.409,28.378,53.7,77.751v-.624l67.711-49.372Z" transform="translate(-53.699 2.055)" fill="#fff"/>
      <path id="Path_2766" data-name="Path 2766" d="M121.409,28.726,53.7,78.1v-.624L121.409,28.1Z" transform="translate(-53.699 2.329)" fill="#fff"/>
      <path id="Path_2767" data-name="Path 2767" d="M121.409,29.074,53.7,78.448v-.624l67.711-49.372Z" transform="translate(-53.699 2.603)" fill="#fff"/>
      <path id="Path_2768" data-name="Path 2768" d="M121.409,29.422,53.7,78.8v-.624L121.409,28.8Z" transform="translate(-53.699 2.878)" fill="#fff"/>
      <path id="Path_2769" data-name="Path 2769" d="M121.409,29.771,53.7,79.144V78.52l67.711-49.372Z" transform="translate(-53.699 3.152)" fill="#fff"/>
      <path id="Path_2770" data-name="Path 2770" d="M121.409,30.119,53.7,79.492v-.624L121.409,29.5Z" transform="translate(-53.699 3.426)" fill="#fff"/>
      <path id="Path_2771" data-name="Path 2771" d="M121.409,30.467,53.7,79.84v-.624l67.711-49.371Z" transform="translate(-53.699 3.7)" fill="#fff"/>
      <path id="Path_2772" data-name="Path 2772" d="M121.409,30.815,53.7,80.188v-.624l67.711-49.371Z" transform="translate(-53.699 3.974)" fill="#fff"/>
      <path id="Path_2773" data-name="Path 2773" d="M121.409,31.163,53.7,80.536v-.624l67.711-49.372Z" transform="translate(-53.699 4.249)" fill="#fff"/>
      <path id="Path_2774" data-name="Path 2774" d="M121.409,31.511,53.7,80.885v-.624l67.711-49.372Z" transform="translate(-53.699 4.523)" fill="#fff"/>
      <path id="Path_2775" data-name="Path 2775" d="M121.409,31.86,53.7,81.233v-.624l67.711-49.372Z" transform="translate(-53.699 4.797)" fill="#fff"/>
      <path id="Path_2776" data-name="Path 2776" d="M121.409,32.208,53.7,81.581v-.624l67.711-49.372Z" transform="translate(-53.699 5.071)" fill="#fff"/>
      <path id="Path_2777" data-name="Path 2777" d="M121.409,32.556,53.7,81.929v-.624l67.711-49.371Z" transform="translate(-53.699 5.346)" fill="#fff"/>
      <path id="Path_2778" data-name="Path 2778" d="M121.409,32.9,53.7,82.277v-.624l67.711-49.372Z" transform="translate(-53.699 5.62)" fill="#fff"/>
      <path id="Path_2779" data-name="Path 2779" d="M121.409,33.252,53.7,82.625V82L121.409,32.63Z" transform="translate(-53.699 5.894)" fill="#fff"/>
      <path id="Path_2780" data-name="Path 2780" d="M121.409,33.6,53.7,82.974V82.35l67.711-49.372Z" transform="translate(-53.699 6.168)" fill="#fff"/>
      <path id="Path_2781" data-name="Path 2781" d="M121.409,33.949,53.7,83.322V82.7l67.711-49.372Z" transform="translate(-53.699 6.443)" fill="#fff"/>
      <path id="Path_2782" data-name="Path 2782" d="M121.409,34.3,53.7,83.67v-.624l67.711-49.372Z" transform="translate(-53.699 6.717)" fill="#fff"/>
      <path id="Path_2783" data-name="Path 2783" d="M121.409,34.645,53.7,84.018v-.624l67.711-49.372Z" transform="translate(-53.699 6.991)" fill="#fff"/>
      <path id="Path_2784" data-name="Path 2784" d="M121.409,34.993,53.7,84.366v-.624l67.711-49.372Z" transform="translate(-53.699 7.265)" fill="#fff"/>
      <path id="Path_2785" data-name="Path 2785" d="M121.409,35.341,53.7,84.715v-.624l67.711-49.372Z" transform="translate(-53.699 7.539)" fill="#fff"/>
      <path id="Path_2786" data-name="Path 2786" d="M121.409,35.689,53.7,85.063v-.624l67.711-49.371Z" transform="translate(-53.699 7.814)" fill="#fff"/>
      <path id="Path_2787" data-name="Path 2787" d="M121.409,36.038,53.7,85.411v-.624l67.711-49.372Z" transform="translate(-53.699 8.088)" fill="#fff"/>
      <path id="Path_2788" data-name="Path 2788" d="M121.409,36.386,53.7,85.759v-.624l67.711-49.371Z" transform="translate(-53.699 8.362)" fill="#fff"/>
      <path id="Path_2789" data-name="Path 2789" d="M121.409,36.734,53.7,86.107v-.624l67.711-49.372Z" transform="translate(-53.699 8.636)" fill="#fff"/>
      <path id="Path_2790" data-name="Path 2790" d="M121.409,37.082,53.7,86.455v-.624L121.409,36.46Z" transform="translate(-53.699 8.911)" fill="#fff"/>
      <path id="Path_2791" data-name="Path 2791" d="M121.409,37.43,53.7,86.8V86.18l67.711-49.372Z" transform="translate(-53.699 9.185)" fill="#fff"/>
      <path id="Path_2792" data-name="Path 2792" d="M121.409,37.778,53.7,87.152v-.624l67.711-49.372Z" transform="translate(-53.699 9.459)" fill="#fff"/>
      <path id="Path_2793" data-name="Path 2793" d="M121.409,38.127,53.7,87.5v-.624L121.409,37.5Z" transform="translate(-53.699 9.733)" fill="#fff"/>
      <path id="Path_2794" data-name="Path 2794" d="M121.409,38.475,53.7,87.848v-.624l67.711-49.372Z" transform="translate(-53.699 10.008)" fill="#fff"/>
      <path id="Path_2795" data-name="Path 2795" d="M121.409,38.823,53.7,88.2v-.624L121.409,38.2Z" transform="translate(-53.699 10.282)" fill="#fff"/>
      <path id="Path_2796" data-name="Path 2796" d="M121.409,39.171,53.7,88.544V87.92l67.711-49.371Z" transform="translate(-53.699 10.556)" fill="#fff"/>
      <path id="Path_2797" data-name="Path 2797" d="M121.409,39.519,53.7,88.893v-.624L121.409,38.9Z" transform="translate(-53.699 10.83)" fill="#fff"/>
      <path id="Path_2798" data-name="Path 2798" d="M121.409,39.867,53.7,89.241v-.624l67.711-49.372Z" transform="translate(-53.699 11.105)" fill="#fff"/>
      <path id="Path_2799" data-name="Path 2799" d="M121.409,40.216,53.7,89.589v-.624l67.711-49.372Z" transform="translate(-53.699 11.379)" fill="#fff"/>
      <path id="Path_2800" data-name="Path 2800" d="M121.409,40.564,53.7,89.937v-.624l67.711-49.371Z" transform="translate(-53.699 11.653)" fill="#fff"/>
      <path id="Path_2801" data-name="Path 2801" d="M121.409,40.912,53.7,90.285v-.624L121.409,40.29Z" transform="translate(-53.699 11.927)" fill="#fff"/>
      <path id="Path_2802" data-name="Path 2802" d="M121.409,41.26,53.7,90.633v-.624l67.711-49.372Z" transform="translate(-53.699 12.201)" fill="#fff"/>
      <path id="Path_2803" data-name="Path 2803" d="M121.409,41.608,53.7,90.981v-.624l67.711-49.371Z" transform="translate(-53.699 12.476)" fill="#fff"/>
      <path id="Path_2804" data-name="Path 2804" d="M121.409,41.956,53.7,91.33v-.624l67.711-49.371Z" transform="translate(-53.699 12.75)" fill="#fff"/>
      <path id="Path_2805" data-name="Path 2805" d="M121.409,42.3,53.7,91.678v-.624l67.711-49.371Z" transform="translate(-53.699 13.024)" fill="#fff"/>
      <path id="Path_2806" data-name="Path 2806" d="M121.409,42.653,53.7,92.026V91.4l67.711-49.372Z" transform="translate(-53.699 13.298)" fill="#fff"/>
      <path id="Path_2807" data-name="Path 2807" d="M121.409,43,53.7,92.374V91.75l67.711-49.372Z" transform="translate(-53.699 13.573)" fill="#fff"/>
      <path id="Path_2808" data-name="Path 2808" d="M121.409,43.349,53.7,92.722V92.1l67.711-49.372Z" transform="translate(-53.699 13.847)" fill="#fff"/>
      <path id="Path_2809" data-name="Path 2809" d="M121.409,43.7,53.7,93.07v-.624l67.711-49.371Z" transform="translate(-53.699 14.121)" fill="#fff"/>
      <path id="Path_2810" data-name="Path 2810" d="M121.409,44.045,53.7,93.419v-.624l67.711-49.372Z" transform="translate(-53.699 14.395)" fill="#fff"/>
      <path id="Path_2811" data-name="Path 2811" d="M121.409,44.394,53.7,93.767v-.624l67.711-49.372Z" transform="translate(-53.699 14.67)" fill="#fff"/>
      <path id="Path_2812" data-name="Path 2812" d="M121.409,44.742,53.7,94.115v-.624L121.409,44.12Z" transform="translate(-53.699 14.944)" fill="#fff"/>
      <path id="Path_2813" data-name="Path 2813" d="M121.409,45.09,53.7,94.463v-.624l67.711-49.371Z" transform="translate(-53.699 15.218)" fill="#fff"/>
      <path id="Path_2814" data-name="Path 2814" d="M121.409,45.438,53.7,94.811v-.624l67.711-49.371Z" transform="translate(-53.699 15.492)" fill="#fff"/>
      <path id="Path_2815" data-name="Path 2815" d="M121.409,45.786,53.7,95.16v-.624l67.711-49.372Z" transform="translate(-53.699 15.767)" fill="#fff"/>
      <path id="Path_2816" data-name="Path 2816" d="M121.409,46.134,53.7,95.508v-.624l67.711-49.372Z" transform="translate(-53.699 16.041)" fill="#fff"/>
      <path id="Path_2817" data-name="Path 2817" d="M121.409,46.483,53.7,95.856v-.624L121.409,45.86Z" transform="translate(-53.699 16.315)" fill="#fff"/>
      <path id="Path_2818" data-name="Path 2818" d="M121.409,46.831,53.7,96.2V95.58l67.711-49.372Z" transform="translate(-53.699 16.589)" fill="#fff"/>
      <path id="Path_2819" data-name="Path 2819" d="M121.409,47.179,53.7,96.552v-.624l67.711-49.371Z" transform="translate(-53.699 16.863)" fill="#fff"/>
      <path id="Path_2820" data-name="Path 2820" d="M121.409,47.527,53.7,96.9v-.624L121.409,46.9Z" transform="translate(-53.699 17.138)" fill="#fff"/>
      <path id="Path_2821" data-name="Path 2821" d="M121.409,47.875,53.7,97.248v-.624l67.711-49.371Z" transform="translate(-53.699 17.412)" fill="#fff"/>
      <path id="Path_2822" data-name="Path 2822" d="M121.409,48.223,53.7,97.6v-.624L121.409,47.6Z" transform="translate(-53.699 17.686)" fill="#fff"/>
      <path id="Path_2823" data-name="Path 2823" d="M121.409,48.572,53.7,97.945v-.624l67.711-49.371Z" transform="translate(-53.699 17.96)" fill="#fff"/>
      <path id="Path_2824" data-name="Path 2824" d="M121.409,48.92,53.7,98.293v-.624L121.409,48.3Z" transform="translate(-53.699 18.235)" fill="#fff"/>
      <path id="Path_2825" data-name="Path 2825" d="M121.409,49.268,53.7,98.641v-.624l67.711-49.372Z" transform="translate(-53.699 18.509)" fill="#fff"/>
      <path id="Path_2826" data-name="Path 2826" d="M121.409,49.616,53.7,98.989v-.624l67.711-49.372Z" transform="translate(-53.699 18.783)" fill="#fff"/>
      <path id="Path_2827" data-name="Path 2827" d="M121.409,49.964,53.7,99.337v-.624l67.711-49.372Z" transform="translate(-53.699 19.057)" fill="#fff"/>
      <path id="Path_2828" data-name="Path 2828" d="M121.409,50.312,53.7,99.686v-.624L121.409,49.69Z" transform="translate(-53.699 19.332)" fill="#fff"/>
      <path id="Path_2829" data-name="Path 2829" d="M121.409,50.66,53.7,100.034V99.41l67.711-49.372Z" transform="translate(-53.699 19.606)" fill="#fff"/>
      <path id="Path_2830" data-name="Path 2830" d="M121.409,51.009,53.7,100.382v-.624l67.711-49.372Z" transform="translate(-53.699 19.88)" fill="#fff"/>
      <path id="Path_2831" data-name="Path 2831" d="M121.409,51.357,53.74,100.7H53.7v-.593l67.711-49.372Z" transform="translate(-53.699 20.154)" fill="#fff"/>
      <path id="Path_2832" data-name="Path 2832" d="M121.391,51.705,54.574,100.426h-.853l67.67-49.343Z" transform="translate(-53.681 20.429)" fill="#fff"/>
      <path id="Path_2833" data-name="Path 2833" d="M121.016,52.053l-65.963,48.1H54.2l66.817-48.721Z" transform="translate(-53.306 20.703)" fill="#fff"/>
      <path id="Path_2834" data-name="Path 2834" d="M120.639,52.4,55.529,99.878h-.853l65.963-48.1Z" transform="translate(-52.929 20.977)" fill="#fff"/>
      <path id="Path_2835" data-name="Path 2835" d="M120.263,52.75,56.006,99.6h-.853l65.11-47.477Z" transform="translate(-52.553 21.251)" fill="#fff"/>
      <path id="Path_2836" data-name="Path 2836" d="M119.888,53.1l-63.4,46.231H55.63l64.257-46.853Z" transform="translate(-52.178 21.525)" fill="#fff"/>
      <path id="Path_2837" data-name="Path 2837" d="M119.511,53.446,56.961,99.054h-.853l63.4-46.231Z" transform="translate(-51.801 21.8)" fill="#fff"/>
      <path id="Path_2838" data-name="Path 2838" d="M119.136,53.794,57.44,98.78h-.855l62.55-45.609Z" transform="translate(-51.426 22.074)" fill="#fff"/>
      <path id="Path_2839" data-name="Path 2839" d="M118.759,54.142,57.916,98.506h-.853l61.7-44.986Z" transform="translate(-51.049 22.348)" fill="#fff"/>
      <path id="Path_2840" data-name="Path 2840" d="M118.383,54.49,58.395,98.232H57.54l60.843-44.364Z" transform="translate(-50.673 22.622)" fill="#fff"/>
      <path id="Path_2841" data-name="Path 2841" d="M118.007,54.838,58.871,97.958h-.853l59.988-43.742Z" transform="translate(-50.297 22.897)" fill="#fff"/>
      <path id="Path_2842" data-name="Path 2842" d="M117.631,55.187,59.35,97.683H58.5l59.136-43.118Z" transform="translate(-49.921 23.171)" fill="#fff"/>
      <path id="Path_2843" data-name="Path 2843" d="M58.973,97.409l58.281-42.5v42.5Z" transform="translate(-49.545 23.445)" fill="#fff"/>
    </g>
  </g>
</svg>
